<?xml version="1.0" encoding="UTF-8"?>
<svg version="1.1" xmlns="http://www.w3.org/2000/svg" width="512" height="512">
<path d="M0 0 C0.73110605 -0.00465992 1.4622121 -0.00931984 2.21547288 -0.01412097 C4.6786368 -0.02612354 7.14125446 -0.01665555 9.60442352 -0.00736332 C11.38281736 -0.01153394 13.16120854 -0.01700995 14.93959475 -0.02368313 C19.8369659 -0.03819208 24.73416954 -0.03387608 29.63155007 -0.02651632 C34.90905879 -0.02180042 40.18653044 -0.03428042 45.4640274 -0.04453373 C55.80678188 -0.0617577 66.14947569 -0.06255435 76.49224079 -0.05732083 C84.89553181 -0.05328485 93.29880487 -0.05471586 101.70209503 -0.06006908 C103.4938208 -0.06119172 103.4938208 -0.06119172 105.32174304 -0.06233703 C107.74806099 -0.06386845 110.17437893 -0.0654068 112.60069686 -0.066952 C135.37010392 -0.08068987 158.13947664 -0.07523014 180.90888292 -0.06376678 C201.75727504 -0.05383137 222.60557846 -0.06677815 243.4539569 -0.09070098 C264.84298682 -0.11505997 286.23197537 -0.12470784 307.62101889 -0.11804825 C319.63663659 -0.11454912 331.65218602 -0.11683382 343.66779327 -0.13429928 C353.89560926 -0.14898123 364.1233089 -0.14970927 374.3511225 -0.13222837 C379.57285583 -0.12368316 384.79438097 -0.12165427 390.01610374 -0.13687992 C394.79161527 -0.15063254 399.56673841 -0.14608641 404.34222692 -0.12664068 C406.07433278 -0.12285122 407.80646906 -0.12588649 409.53854805 -0.13625234 C411.88477061 -0.14930054 414.22962825 -0.1379498 416.57579041 -0.12025452 C417.88137893 -0.12014718 419.18696746 -0.12003984 420.53211927 -0.11992925 C423.7878952 0.38031673 423.7878952 0.38031673 426.2102704 2.19389004 C428.47715332 5.33555803 428.28812164 8.26719928 428.1785202 11.98969173 C428.17286041 12.71650143 428.16720062 13.44331112 428.16136932 14.19214535 C428.13904073 16.50554918 428.08885568 18.81738394 428.0378952 21.13031673 C428.01782544 22.70190889 427.99957549 24.27352541 427.9832077 25.84516048 C427.93918813 29.69081391 427.87018895 33.53529962 427.7878952 37.38031673 C428.77185272 37.36460629 429.75581024 37.34889584 430.76958466 37.33270931 C434.42038028 37.27840696 438.07114021 37.24396589 441.72222137 37.21552181 C443.30236057 37.20043579 444.88245789 37.17996423 446.46245575 37.15399837 C448.73380105 37.11760547 451.00459279 37.10058911 453.27617645 37.08734798 C454.33570274 37.0641222 454.33570274 37.0641222 455.41663361 37.04042721 C460.32039593 37.0387448 460.32039593 37.0387448 462.69487762 38.77362728 C465.13683072 42.3631947 464.90313514 45.03129212 464.88555145 49.35687923 C464.88342903 50.38475048 464.88342903 50.38475048 464.88126373 51.4333868 C464.87566195 53.62407434 464.86310926 55.81466004 464.8503952 58.00531673 C464.84538043 59.48969026 464.84081748 60.97406538 464.83672333 62.45844173 C464.82569197 66.09909989 464.80842619 69.73969837 464.7878952 73.38031673 C465.70602997 73.3698431 466.62416473 73.35936947 467.57012177 73.34857845 C470.98437267 73.31444459 474.39844158 73.28939264 477.81279755 73.27045345 C479.28906368 73.26041083 480.76530999 73.24677408 482.24150848 73.22943783 C484.36639555 73.20511252 486.49101905 73.19381633 488.6160202 73.18500423 C489.89380341 73.1745306 491.17158661 73.16405697 492.48809052 73.15326595 C495.57936413 73.36596827 497.26501207 73.64116046 499.7878952 75.38031673 C501.50680546 78.81813724 500.93583246 82.77637362 500.93506622 86.56011105 C500.93874291 87.52342156 500.9424196 88.48673206 500.9462077 89.4792338 C500.95727624 92.72743536 500.9610937 95.97560497 500.96489716 99.22382259 C500.97115927 101.54434467 500.97780584 103.86486574 500.98480988 106.1853857 C501.00223976 112.50344554 501.01277642 118.82149779 501.02101541 125.13957572 C501.02615988 129.08245492 501.03223576 133.02533174 501.03852654 136.96820927 C501.05539698 147.87909654 501.07003335 158.78998172 501.07727528 169.70088005 C501.07918524 172.53274633 501.08110557 175.3646126 501.08306122 178.19647884 C501.08354496 178.900346 501.0840287 179.60421315 501.0845271 180.32940961 C501.09283379 191.74072506 501.11818201 203.15193591 501.1506419 214.56320565 C501.18367561 226.27134406 501.20172059 237.97942923 501.20491952 249.6876145 C501.20727663 256.26448589 501.21632303 262.84119188 501.24138069 269.41801929 C501.26455742 275.60104061 501.26893669 281.7837864 501.25861931 287.96683979 C501.25812134 290.24090901 501.26451785 292.51499132 501.27817535 294.78901958 C501.29573023 297.88419531 501.28886927 300.97836444 501.2756424 304.07353878 C501.29209626 305.43578033 501.29209626 305.43578033 501.30888253 306.82554191 C501.30030164 307.65236302 501.29172075 308.47918412 501.28287983 309.33106041 C501.28385664 310.04574909 501.28483345 310.76043776 501.28583986 311.49678367 C500.7878952 313.38031673 500.7878952 313.38031673 499.20771521 315.10962546 C495.8854202 316.85422269 493.32532538 316.7576779 489.57579041 316.76063347 C488.84468436 316.76529339 488.11357831 316.76995331 487.36031753 316.77475443 C484.89715361 316.78675701 482.43453594 316.77728902 479.97136688 316.76799679 C478.19297305 316.7721674 476.41458187 316.77764342 474.63619566 316.7843166 C469.73882451 316.79882554 464.84162087 316.79450954 459.94424033 316.78714979 C454.66673161 316.78243389 449.38925997 316.79491389 444.111763 316.8051672 C433.76900853 316.82239117 423.42631471 316.82318782 413.08354962 316.81795429 C404.68025859 316.81391831 396.27698554 316.81534933 387.87369537 316.82070255 C386.08196961 316.82182519 386.08196961 316.82182519 384.25404736 316.8229705 C381.82772942 316.82450192 379.40141148 316.82604027 376.97509354 316.82758547 C354.20568649 316.84132334 331.43631377 316.83586361 308.66690749 316.82440025 C287.81851536 316.81446484 266.97021195 316.82741162 246.1218335 316.85133445 C224.73280358 316.87569344 203.34381504 316.88534131 181.95477152 316.87868172 C169.93915382 316.87518259 157.92360438 316.87746728 145.90799713 316.89493275 C135.68018115 316.9096147 125.45248151 316.91034274 115.22466791 316.89286184 C110.00293458 316.88431663 104.78140943 316.88228774 99.55968666 316.89751339 C94.78417514 316.91126601 90.00905199 316.90671988 85.23356348 316.88727415 C83.50145762 316.88348469 81.76932134 316.88651996 80.03724235 316.8968858 C77.6910198 316.909934 75.34616215 316.89858327 73 316.88088799 C71.69441147 316.88078065 70.38882295 316.88067331 69.04367113 316.88056272 C65.7878952 316.38031673 65.7878952 316.38031673 63.36552 314.56674343 C61.09863708 311.42507544 61.28766877 308.49343419 61.3972702 304.77094173 C61.40292999 304.04413204 61.40858978 303.31732235 61.41442108 302.56848812 C61.43674967 300.25508428 61.48693472 297.94324953 61.5378952 295.63031673 C61.55796497 294.05872458 61.57621491 292.48710806 61.5925827 290.91547298 C61.63660228 287.06981956 61.70560145 283.22533385 61.7878952 279.38031673 C60.80393768 279.39602718 59.81998016 279.41173763 58.80620575 279.42792416 C55.15541012 279.48222651 51.50465019 279.51666758 47.85356903 279.54511166 C46.27342984 279.56019768 44.69333251 279.58066924 43.11333466 279.60663509 C40.84198935 279.643028 38.57119762 279.66004436 36.29961395 279.67328548 C35.24008766 279.69651127 35.24008766 279.69651127 34.1591568 279.72020626 C29.25539448 279.72188867 29.25539448 279.72188867 26.88091278 277.98700619 C24.43895968 274.39743877 24.67265527 271.72934135 24.69023895 267.40375423 C24.6916539 266.71850674 24.69306885 266.03325924 24.69452667 265.32724667 C24.70012846 263.13655913 24.71268114 260.94597343 24.7253952 258.75531673 C24.73040998 257.27094321 24.73497292 255.78656808 24.73906708 254.30219173 C24.75009843 250.66153358 24.76736421 247.02093509 24.7878952 243.38031673 C23.86976044 243.39079037 22.95162567 243.401264 22.00566864 243.41205502 C18.59141774 243.44618888 15.17734882 243.47124083 11.76299286 243.49018002 C10.28672673 243.50022264 8.81048042 243.51385939 7.33428192 243.53119564 C5.20939486 243.55552095 3.08477135 243.56681714 0.9597702 243.57562923 C-0.318013 243.58610287 -1.5957962 243.5965765 -2.91230011 243.60736752 C-6.00357373 243.3946652 -7.68922167 243.11947301 -10.2121048 241.38031673 C-11.93101505 237.94249622 -11.36004206 233.98425985 -11.35927582 230.20052242 C-11.36479085 228.75555666 -11.36479085 228.75555666 -11.3704173 227.28139967 C-11.38148583 224.03319811 -11.38530329 220.7850285 -11.38910675 217.53681087 C-11.39536886 215.21628879 -11.40201543 212.89576772 -11.40901947 210.57524776 C-11.42644936 204.25718793 -11.43698601 197.93913568 -11.445225 191.62105775 C-11.45036947 187.67817855 -11.45644535 183.73530173 -11.46273613 179.7924242 C-11.47960657 168.88153692 -11.49424294 157.97065174 -11.50148487 147.05975342 C-11.50339484 144.22788714 -11.50531516 141.39602087 -11.50727081 138.56415462 C-11.50775455 137.86028747 -11.50823829 137.15642032 -11.50873669 136.43122386 C-11.51704338 125.0199084 -11.5423916 113.60869756 -11.57485149 102.19742782 C-11.6078852 90.48928941 -11.62593019 78.78120424 -11.62912911 67.07301897 C-11.63148622 60.49614758 -11.64053263 53.91944158 -11.66559029 47.34261417 C-11.68876701 41.15959286 -11.69314628 34.97684707 -11.6828289 28.79379368 C-11.68233094 26.51972446 -11.68872744 24.24564215 -11.70238495 21.97161388 C-11.71993982 18.87643816 -11.71307887 15.78226903 -11.69985199 12.68709469 C-11.71082124 11.77893365 -11.72179048 10.87077262 -11.73309213 9.93509156 C-11.72451124 9.10827045 -11.71593034 8.28144935 -11.70708942 7.42957306 C-11.70806623 6.71488438 -11.70904304 6.0001957 -11.71004945 5.26384979 C-11.2121048 3.38031673 -11.2121048 3.38031673 -9.63192481 1.65100801 C-6.3096298 -0.09358922 -3.74953497 0.00295557 0 0 Z M2.7878952 15.38031673 C2.7878952 85.67031673 2.7878952 155.96031673 2.7878952 228.38031673 C138.0878952 228.38031673 273.3878952 228.38031673 412.7878952 228.38031673 C412.7878952 158.09031673 412.7878952 87.80031673 412.7878952 15.38031673 C277.4878952 15.38031673 142.1878952 15.38031673 2.7878952 15.38031673 Z M427.7878952 52.38031673 C427.78424957 54.71640514 427.78060394 57.05249355 427.77684784 59.45937252 C427.74066734 81.42972983 427.68252363 103.39994991 427.60399246 125.3701973 C427.56414618 136.66646031 427.53178214 147.96265309 427.51689911 159.25897884 C427.50391151 169.10236243 427.47702113 178.94559185 427.43328214 188.78888863 C427.41060208 194.00313438 427.39498843 199.21718953 427.39601135 204.43148899 C427.39675411 209.33581112 427.37895873 214.23971086 427.34672737 219.14392376 C427.33818399 220.94709569 427.33650831 222.75031475 427.34209251 224.55349827 C427.34868759 227.00960185 427.33092193 229.46434369 427.30687714 231.92031002 C427.31851776 232.99861323 427.31851776 232.99861323 427.33039355 234.09870034 C427.24667453 238.90619435 427.24667453 238.90619435 425.16075993 241.06186867 C422.05546271 242.78728229 419.86336749 242.75927838 416.31425095 242.76507759 C415.66298845 242.7702275 415.01172595 242.7753774 414.34072822 242.78068337 C412.14919979 242.79434512 409.95826655 242.78660575 407.766716 242.77904415 C406.18346034 242.78448118 404.60020874 242.79123172 403.01696372 242.79918605 C398.65915128 242.8172636 394.30150879 242.81664793 389.94366765 242.81305659 C385.24700602 242.81243422 380.55040215 242.82903889 375.8537674 242.84357357 C367.7141528 242.86639499 359.57458109 242.87825078 351.43493652 242.88270283 C339.6663228 242.88915555 327.89778673 242.91207745 316.12920424 242.93904612 C297.03644157 242.98235028 277.94368215 243.01229629 258.85088348 243.03388119 C240.30171352 243.05488001 221.75257026 243.08214552 203.20342255 243.11786556 C201.48896993 243.1211638 201.48896993 243.1211638 199.7398819 243.12452867 C194.00606495 243.13559805 188.27224824 243.14679091 182.53843164 243.15804517 C134.95494287 243.25128163 87.37143933 243.32263388 39.7878952 243.38031673 C39.7878952 250.31031673 39.7878952 257.24031673 39.7878952 264.38031673 C175.0878952 264.38031673 310.3878952 264.38031673 449.7878952 264.38031673 C449.7878952 194.42031673 449.7878952 124.46031673 449.7878952 52.38031673 C442.5278952 52.38031673 435.2678952 52.38031673 427.7878952 52.38031673 Z M464.7878952 88.38031673 C464.77758774 90.70165646 464.76728027 93.02299618 464.75666046 95.41467953 C464.65922922 117.25222396 464.55639604 139.08973815 464.44855595 160.9272337 C464.39324006 172.15507367 464.33976072 183.38291682 464.29058075 194.61078548 C464.24771892 204.39515441 464.20143584 214.17950009 464.15101665 223.96383309 C464.12443186 229.14619957 464.09957914 234.32856149 464.07882118 239.51095486 C464.05923869 244.38640363 464.03508999 249.26180823 464.00740433 254.13721752 C463.99804246 255.92869292 463.99036407 257.72017802 463.98447609 259.51166821 C463.97620026 261.9538338 463.96191938 264.39589261 463.94611359 266.83801937 C463.94513548 267.55008439 463.94415737 268.26214941 463.94314963 268.99579215 C463.91498508 272.37009726 463.61517103 275.07121342 462.7878952 278.38031673 C271.7178952 278.87531673 271.7178952 278.87531673 76.7878952 279.38031673 C76.7878952 286.64031673 76.7878952 293.90031673 76.7878952 301.38031673 C212.0878952 301.38031673 347.3878952 301.38031673 486.7878952 301.38031673 C486.7878952 231.09031673 486.7878952 160.80031673 486.7878952 88.38031673 C479.5278952 88.38031673 472.2678952 88.38031673 464.7878952 88.38031673 Z " fill="#000000" transform="translate(11.212104797363281,97.61968326568604)"/>
<path d="M0 0 C1.31314509 -0.01104769 2.62629018 -0.02209538 3.97922754 -0.03347784 C5.43491728 -0.02552067 6.89060497 -0.01718299 8.34629059 -0.00850582 C9.89384928 -0.01383032 11.4414028 -0.02089545 12.98894644 -0.02955288 C17.2436976 -0.04821993 21.49810166 -0.04186136 25.75286746 -0.03139985 C30.34054287 -0.02441937 34.92814615 -0.04039694 39.51580048 -0.05339718 C48.50386615 -0.07506135 57.49180534 -0.07490417 66.47988856 -0.06677163 C73.78332469 -0.06047712 81.08672387 -0.06160362 88.39015961 -0.06804371 C89.42879901 -0.06894536 90.46743841 -0.06984702 91.53755173 -0.070776 C93.64739042 -0.07262716 95.75722909 -0.07448972 97.86706775 -0.07636356 C117.66071065 -0.09295028 137.45428231 -0.08421521 157.24792093 -0.06737798 C175.366728 -0.05267841 193.48536929 -0.06731152 211.604155 -0.09614814 C230.19870961 -0.12552212 248.79318765 -0.13652038 267.38776445 -0.12696594 C269.48993205 -0.12594336 271.59209965 -0.12494875 273.69426727 -0.12398243 C275.24581155 -0.12326784 275.24581155 -0.12326784 276.82870016 -0.12253882 C284.12513568 -0.12037215 291.42149891 -0.13019216 298.7179184 -0.14475346 C307.60733364 -0.16224605 316.49653743 -0.16220363 325.38594425 -0.1394018 C329.92332503 -0.1282319 334.46033282 -0.12515901 338.99769783 -0.14370251 C343.14912392 -0.16045075 347.29985008 -0.15423388 351.45123035 -0.12948572 C352.95519448 -0.12458333 354.45921446 -0.12816993 355.96313208 -0.14097316 C358.00351169 -0.15709365 360.04407488 -0.13955576 362.08442688 -0.12025452 C363.21897891 -0.11998483 364.35353093 -0.11971514 365.52246332 -0.11943728 C369.5203905 0.70880472 371.02630861 2.35668363 373.54221344 5.50615788 C374.16862583 8.90573311 374.16862583 8.90573311 374.17040253 12.87604618 C374.17749691 13.60845191 374.1845913 14.34085765 374.19190067 15.09545749 C374.20947563 17.54482495 374.1913802 19.99260439 374.17331696 22.44194889 C374.17845596 24.19972805 374.1857371 25.95750206 374.19499969 27.71526432 C374.21352304 32.48593971 374.20056982 37.25605665 374.1809094 42.02670884 C374.16453187 47.01766286 374.17333442 52.00858126 374.17842865 56.99955082 C374.18295019 65.38001783 374.16707497 73.76026169 374.13913727 82.14067936 C374.10707467 91.83324794 374.10710496 101.52541425 374.12435204 111.21801144 C374.14020765 120.53897977 374.13349046 129.85980044 374.11641502 139.18076229 C374.10953772 143.1492127 374.11058391 147.11754499 374.11795998 151.08599377 C374.12561303 155.75728671 374.11352888 160.42812098 374.08611107 165.09933567 C374.07921623 166.81501942 374.07914102 168.53074593 374.0863266 170.24642849 C374.0949967 172.58588433 374.07910882 174.92391661 374.05687714 177.26325321 C374.05407022 178.5730795 374.05126329 179.88290579 374.04837132 181.23242378 C373.43886262 185.17461155 372.66102331 186.09963183 369.54221344 188.50615788 C366.62512439 189.00755453 366.62512439 189.00755453 363.15503597 189.00952244 C362.51311413 189.0153362 361.87119229 189.02114996 361.20981827 189.0271399 C359.04984728 189.04178646 356.89100444 189.02783448 354.73104095 189.01409245 C353.17054635 189.01869955 351.61005607 189.02505119 350.04957491 189.03300142 C345.7544917 189.049744 341.45976268 189.04142618 337.16467798 189.02905655 C332.5354477 189.02002853 327.90627952 189.03396453 323.27706146 189.04497623 C314.20597016 189.06278971 305.13501102 189.05890902 296.06391447 189.04732567 C288.6941724 189.03830329 281.32446745 189.03706216 273.95472145 189.04142094 C272.38320382 189.04234033 272.38320382 189.04234033 270.77993836 189.04327831 C268.65181568 189.04455717 266.52369301 189.04585402 264.39557035 189.04716867 C244.42696944 189.05858261 224.45844191 189.04544771 204.48985303 189.02396721 C187.34247483 189.00609288 170.19520492 189.00920153 153.04782867 189.02764225 C133.15061918 189.04903009 113.25347402 189.05748666 93.35625464 189.0451932 C91.23613299 189.04391895 89.11601133 189.04266147 86.99588966 189.04142094 C85.95265807 189.04080383 84.90942648 189.04018673 83.8345818 189.03955093 C76.470106 189.03609196 69.1056709 189.04193808 61.7412014 189.05133915 C52.77157676 189.06253725 43.80209221 189.05956523 34.8324837 189.03821617 C30.25287819 189.02767657 25.67350656 189.02363324 21.09390259 189.03681278 C16.90623379 189.04868248 12.71901689 189.04226462 8.53138942 189.02090257 C7.01195475 189.01641338 5.49248234 189.01875435 3.97307169 189.02840573 C1.91601263 189.0404757 -0.13947492 189.02819435 -2.19645023 189.00952244 C-3.91390047 189.00854832 -3.91390047 189.00854832 -5.66604668 189.00755453 C-8.45778656 188.50615788 -8.45778656 188.50615788 -10.3251757 186.68045664 C-11.98774877 183.4887774 -11.84205334 180.80498494 -11.85219574 177.21856022 C-11.85828684 176.48292536 -11.86437795 175.7472905 -11.87065363 174.98936367 C-11.88730782 172.52345082 -11.88250453 170.05805297 -11.87770844 167.59209538 C-11.88504729 165.82461351 -11.89363298 164.05713644 -11.90337372 162.28966618 C-11.9256156 157.48809236 -11.92851914 152.68669001 -11.92662621 147.88507175 C-11.92650665 143.87888338 -11.93506451 139.87273154 -11.94340372 135.86655331 C-11.9626467 126.41762075 -11.96551804 116.96877654 -11.95876312 107.51982975 C-11.9521183 97.76533907 -11.97500241 88.01122614 -12.01207685 78.2568121 C-12.04273889 69.88643998 -12.05413778 61.51618962 -12.05024004 53.14576244 C-12.04816925 48.14442032 -12.05370272 43.14337222 -12.07813263 38.14208317 C-12.10034011 33.44040923 -12.09857225 28.73935126 -12.07820511 24.0376749 C-12.0747846 22.31068541 -12.07992876 20.58365493 -12.09418869 18.85672092 C-12.11229583 16.5016744 -12.099699 14.14873678 -12.07924652 11.79375553 C-12.08031528 9.81600636 -12.08031528 9.81600636 -12.08140564 7.79830265 C-11.45778656 4.50615788 -11.45778656 4.50615788 -9.32242203 2.33203369 C-5.90507664 0.15386884 -4.02693725 0.004229 0 0 Z M3.54221344 15.50615788 C3.54221344 67.97615788 3.54221344 120.44615788 3.54221344 174.50615788 C45.12221344 174.50615788 86.70221344 174.50615788 129.54221344 174.50615788 C126.23187359 171.19581803 123.51236225 168.64608601 119.85471344 165.94365788 C101.68811694 151.50215843 90.92085479 128.74970345 87.85471344 106.06865788 C85.63407241 80.03518539 92.42828643 54.78426998 109.06955719 34.41240788 C114.68866016 27.80796458 120.38917374 22.64498985 127.63596344 17.85381413 C128.57955719 17.18672428 128.57955719 17.18672428 129.54221344 16.50615788 C129.54221344 16.17615788 129.54221344 15.84615788 129.54221344 15.50615788 C87.96221344 15.50615788 46.38221344 15.50615788 3.54221344 15.50615788 Z M146.54221344 23.50615788 C145.63084625 23.92510319 144.71947906 24.3440485 143.78049469 24.77568913 C135.82475094 28.71383903 129.7530959 34.29527541 123.54221344 40.50615788 C122.77522125 41.27315006 122.00822906 42.04014225 121.21799469 42.83037663 C116.17743281 48.17817275 112.71487465 53.89945143 109.54221344 60.50615788 C109.08846344 61.42010319 108.63471344 62.3340485 108.16721344 63.27568913 C99.39309486 82.36461973 99.68915662 103.70516978 106.79221344 123.25615788 C115.5515103 144.27328733 130.65656072 159.51101466 151.47971344 168.66484928 C170.70771572 176.50808979 192.52447565 176.28970156 211.68625641 168.34258366 C232.05009549 159.16519446 247.16245079 143.26453647 255.54221344 122.50615788 C262.74928395 102.59129326 261.62463702 80.41540452 252.80588531 61.28740788 C249.24977764 53.94222979 245.07028913 47.54771095 239.54221344 41.50615788 C238.6566275 40.48328678 238.6566275 40.48328678 237.75315094 39.43975163 C224.98237503 25.55492931 205.26084572 16.65861098 186.54221344 15.50615788 C185.68627594 15.45330631 184.83033844 15.40045475 183.94846344 15.34600163 C170.74909282 14.93795657 158.37184738 17.73197292 146.54221344 23.50615788 Z M232.54221344 15.50615788 C235.54330908 18.50725352 238.33811794 20.94382198 241.66721344 23.50615788 C255.7319562 34.98643392 265.05022535 50.32289211 270.54221344 67.50615788 C270.86190094 68.4884235 271.18158844 69.47068913 271.51096344 70.48272038 C276.14698108 87.78193433 275.50033585 108.60271224 269.54221344 125.50615788 C269.30615387 126.17647038 269.0700943 126.84678288 268.82688141 127.53740788 C264.85181032 138.36313339 259.05480286 149.12098868 250.74533844 157.26787663 C249.30992937 158.45747715 249.30992937 158.45747715 249.54221344 160.50615788 C248.97373688 160.756236 248.40526031 161.00631413 247.81955719 161.26397038 C245.21394832 162.68521158 243.28926587 164.37454992 241.10471344 166.38115788 C237.98598322 169.23411804 234.85720401 171.85416542 231.54221344 174.50615788 C273.45221344 174.50615788 315.36221344 174.50615788 358.54221344 174.50615788 C358.54221344 122.03615788 358.54221344 69.56615788 358.54221344 15.50615788 C316.96221344 15.50615788 275.38221344 15.50615788 232.54221344 15.50615788 Z " fill="#000000" transform="translate(38.457786560058594,124.49384212493896)"/>
<path d="M0 0 C1.67578125 1.03515625 1.67578125 1.03515625 3 3 C3.21853189 5.82925956 3.28262512 8.37331179 3.1875 11.1875 C3.0946875 15.0546875 3.0946875 15.0546875 3 19 C8.61 19 14.22 19 20 19 C19.88161578 13.86902283 19.88161578 13.86902283 19.72973633 8.73901367 C19.66848833 3.48946724 19.66848833 3.48946724 21.328125 1.0390625 C23.8648591 -0.53750589 26.03986839 -0.81876745 29 -1 C31.25 -0.375 31.25 -0.375 33 1 C35.04785317 5.01582555 35.21525588 8.34483374 35.125 12.8125 C35.10695313 13.97394531 35.08890625 15.13539063 35.0703125 16.33203125 C35.04710937 17.21246094 35.02390625 18.09289062 35 19 C35.89203125 18.96519531 36.7840625 18.93039063 37.703125 18.89453125 C38.87359375 18.86746094 40.0440625 18.84039062 41.25 18.8125 C42.99023438 18.76029297 42.99023438 18.76029297 44.765625 18.70703125 C48.25371844 19.02298174 49.557302 19.55145823 52 22 C53.11222716 25.01890228 53.1165079 26.58251335 52.25 29.6875 C51 32 51 32 48 34 C45.50894165 34.24482727 45.50894165 34.24482727 42.50634766 34.23950195 C40.81912094 34.2450988 40.81912094 34.2450988 39.09780884 34.25080872 C37.88217255 34.24667465 36.66653625 34.24254059 35.4140625 34.23828125 C32.84895303 34.25369933 30.28384876 34.27000284 27.71875 34.28710938 C23.66758992 34.30581773 19.61662545 34.31396289 15.56542969 34.30541992 C11.66052379 34.29843433 7.75634393 34.33088784 3.8515625 34.36328125 C2.63997467 34.35307449 1.42838684 34.34286774 0.18008423 34.33235168 C-6.59594387 34.1936671 -6.59594387 34.1936671 -12.29931641 37.32104492 C-14.30324727 39.96377553 -14.30324727 39.96377553 -14.0625 43.5 C-12.91522087 47.27927242 -11.82187472 49.25651069 -9 52 C-4.79197942 54.18996623 -0.81442746 54.27994262 3.828125 54.2734375 C5.36589257 54.29373608 6.90365293 54.31458704 8.44140625 54.3359375 C10.84169622 54.35844786 13.24169945 54.37497967 15.64208984 54.38085938 C27.10295282 54.42809145 36.62782434 55.04940991 45.4296875 63.17578125 C50.50087943 69.06694203 53.23198087 76.2354637 53 84 C52.38711761 90.37612731 50.4227468 95.32209473 46 100 C42.31491378 102.91735992 39.57432869 104.21185553 35 105 C35.05220703 106.42892578 35.05220703 106.42892578 35.10546875 107.88671875 C35.13253906 109.14097656 35.15960938 110.39523437 35.1875 111.6875 C35.23970703 113.54955078 35.23970703 113.54955078 35.29296875 115.44921875 C34.95907002 119.49607131 33.88757052 122.11242948 31 125 C23.80713238 125.46405598 23.80713238 125.46405598 21.25390625 123.99609375 C19.25355519 120.81173428 19.68977639 117.44316405 19.8125 113.8125 C19.874375 111.234375 19.93625 108.65625 20 106 C14.39 106 8.78 106 3 106 C3.11816131 110.75687746 3.11816131 110.75687746 3.27026367 115.51269531 C3.30840519 118.56237665 3.13906363 120.72919188 1.73828125 123.45703125 C-0.88271232 125.78353116 -2.76549394 125.49865902 -6.12890625 125.33203125 C-8 125 -8 125 -9.9375 123.625 C-12.33136173 119.9637997 -12.10216431 117.23807412 -12.0625 112.875 C-12.05347656 111.59367187 -12.04445312 110.31234375 -12.03515625 108.9921875 C-12.02355469 108.00476563 -12.01195312 107.01734375 -12 106 C-13.21236328 106.05220703 -13.21236328 106.05220703 -14.44921875 106.10546875 C-15.51785156 106.13253906 -16.58648437 106.15960938 -17.6875 106.1875 C-19.27111328 106.23970703 -19.27111328 106.23970703 -20.88671875 106.29296875 C-24.4183727 105.96062992 -26.21899916 105.17578303 -29 103 C-30.21770696 99.13198967 -30.46621513 97.03608592 -28.79101562 93.31323242 C-24.18609467 89.49661013 -19.07232724 90.31457696 -13.28125 90.36328125 C-11.40620789 90.34771431 -11.40620789 90.34771431 -9.49328613 90.33183289 C-6.17356619 90.30713521 -2.85517433 90.30270372 0.46453857 90.30969238 C5.14089431 90.31614272 9.81704645 90.29220971 14.49328613 90.2610321 C16.98176897 90.24608605 19.47034902 90.24233181 21.9588623 90.25080872 C23.65081726 90.24521187 23.65081726 90.24521187 25.37695312 90.23950195 C26.36860474 90.24125931 27.36025635 90.24301666 28.38195801 90.24482727 C31.11815927 89.98895029 32.71890118 89.51294388 35 88 C37.0219297 84.21987056 37.14785342 82.53596864 36 78.375 C33.68687977 74.47160961 31.96769068 73.15194337 28 71 C25.29312671 70.63141448 22.98791138 70.4638787 20.29296875 70.49609375 C19.20572258 70.4819619 19.20572258 70.4819619 18.09651184 70.46754456 C15.79321706 70.43904537 13.49095608 70.43580895 11.1875 70.4375 C-11.99906378 70.40076978 -11.99906378 70.40076978 -21 63 C-26.74114499 56.80856913 -29.50963394 50.4132945 -30.4375 42.0625 C-30.08151233 34.91426755 -27.33977537 28.81261567 -22.125 23.9375 C-18.88185672 21.14734637 -16.2302797 20.4881092 -12 20 C-12.05220703 18.33710938 -12.05220703 18.33710938 -12.10546875 16.640625 C-12.13361349 15.17709852 -12.16091292 13.71355561 -12.1875 12.25 C-12.21263672 11.52039063 -12.23777344 10.79078125 -12.26367188 10.0390625 C-12.30798412 6.78949814 -12.2353876 4.43605727 -10.67578125 1.546875 C-7.2455863 -1.6194588 -4.26066634 -1.06516659 0 0 Z " fill="#000000" transform="translate(208,157)"/>
<path d="M0 0 C1.74780273 1.25927734 1.74780273 1.25927734 3.62109375 2.9609375 C4.67200195 3.91468262 4.67200195 3.91468262 5.74414062 4.88769531 C9.69224826 8.58455974 13.58934681 12.32412142 17.4375 16.125 C18.65856445 17.30255859 18.65856445 17.30255859 19.90429688 18.50390625 C20.67708984 19.26832031 21.44988281 20.03273437 22.24609375 20.8203125 C22.94404053 21.50367676 23.6419873 22.18704102 24.36108398 22.89111328 C26.32265973 25.41518467 26.90467457 26.80077108 27 30 C24.51364852 36.52908189 19.59876509 40.95950793 14.75878906 45.79711914 C13.25188043 47.31061135 11.7706246 48.84650358 10.2890625 50.38476562 C9.3243926 51.35823565 8.35829268 52.33029109 7.390625 53.30078125 C6.52469727 54.17903564 5.65876953 55.05729004 4.76660156 55.9621582 C1.42083633 58.42660424 -0.87954679 58.84879623 -5 59 C-11.27272946 56.0282511 -15.93540971 50.32170766 -20.75 45.4375 C-21.61238281 44.57447266 -22.47476563 43.71144531 -23.36328125 42.82226562 C-31.75862327 34.36780148 -31.75862327 34.36780148 -32.5625 29.8125 C-31.97369698 25.82172396 -31.59104027 25.14237275 -29.015625 22.3203125 C-28.38084229 21.62365479 -27.74605957 20.92699707 -27.09204102 20.20922852 C-23.51616404 16.43304568 -19.87437805 12.73019222 -16.1875 9.0625 C-15.42501953 8.29615234 -14.66253906 7.52980469 -13.87695312 6.74023438 C-13.14798828 6.01255859 -12.41902344 5.28488281 -11.66796875 4.53515625 C-11.01078857 3.879104 -10.3536084 3.22305176 -9.67651367 2.54711914 C-6.53946974 -0.34780548 -4.19803846 -0.62193162 0 0 Z M-6.3828125 21.1875 C-7.74019531 22.5796875 -7.74019531 22.5796875 -9.125 24 C-10.03507812 24.928125 -10.94515625 25.85625 -11.8828125 26.8125 C-12.58148438 27.534375 -13.28015625 28.25625 -14 29 C-10.79239749 32.80635497 -7.59253891 36.54563567 -4 40 C-0.54798361 38.52278578 1.64961936 36.56205999 4.25 33.875 C5.30960938 32.78832031 5.30960938 32.78832031 6.390625 31.6796875 C6.92171875 31.12539062 7.4528125 30.57109375 8 30 C3.25436914 24.2584358 3.25436914 24.2584358 -2 19 C-4.29355722 18.77457624 -4.29355722 18.77457624 -6.3828125 21.1875 Z " fill="#000000" transform="translate(86,190)"/>
<path d="M0 0 C3.60489291 0.89129543 5.12054263 1.8230965 7.75390625 4.4140625 C8.59050781 5.22359375 9.42710937 6.033125 10.2890625 6.8671875 C11.25651226 7.841144 12.22396 8.81510251 13.19140625 9.7890625 C14.41815578 10.99332442 15.64608657 12.19638384 16.875 13.3984375 C19.35445843 15.8396239 21.83009492 18.28426 24.28515625 20.75 C24.79755859 21.26353027 25.30996094 21.77706055 25.83789062 22.30615234 C27.92558582 24.59342879 29.11750773 26.43599177 29.75390625 29.4765625 C29.145369 33.06017077 28.57684395 33.80913492 26.21875 36.40625 C25.58316162 37.10741943 24.94757324 37.80858887 24.29272461 38.53100586 C23.59928955 39.27616455 22.90585449 40.02132324 22.19140625 40.7890625 C21.48185791 41.55420166 20.77230957 42.31934082 20.04125977 43.10766602 C17.78398142 45.50712343 15.49266968 47.86931195 13.19140625 50.2265625 C12.423125 51.04060547 11.65484375 51.85464844 10.86328125 52.69335938 C7.57502745 56.04592426 4.99928647 58.45510324 0.62890625 60.26171875 C-4.65680405 59.53493358 -7.15615418 56.48926281 -10.80859375 52.7890625 C-12.36848399 51.32933051 -13.92972234 49.87103802 -15.4921875 48.4140625 C-17.07950764 46.8751602 -18.66412123 45.33346156 -20.24609375 43.7890625 C-21.4671582 42.63664062 -21.4671582 42.63664062 -22.71289062 41.4609375 C-26.06545551 38.1726837 -28.47463449 35.59694272 -30.28125 31.2265625 C-29.55354513 25.93416341 -26.51002687 23.4508374 -22.80859375 19.7890625 C-21.27588192 18.14459043 -19.74469188 16.49869899 -18.21484375 14.8515625 C-16.58225715 13.16132437 -14.94680086 11.4738537 -13.30859375 9.7890625 C-12.49261719 8.91894531 -11.67664063 8.04882812 -10.8359375 7.15234375 C-4.81679684 0.9979415 -4.81679684 0.9979415 0 0 Z M-0.80859375 18.7890625 C-4.10859375 22.0890625 -7.40859375 25.3890625 -10.80859375 28.7890625 C-8.97473452 32.45678095 -7.55796546 34.25741246 -4.68359375 37.0390625 C-3.59691406 38.09867188 -3.59691406 38.09867188 -2.48828125 39.1796875 C-1.93398438 39.71078125 -1.3796875 40.241875 -0.80859375 40.7890625 C2.64342264 39.31184828 4.84102561 37.35112249 7.44140625 34.6640625 C8.50101562 33.57738281 8.50101562 33.57738281 9.58203125 32.46875 C10.113125 31.91445312 10.64421875 31.36015625 11.19140625 30.7890625 C7.51308608 26.26290257 3.78054262 22.39481251 -0.80859375 18.7890625 Z " fill="#000000" transform="translate(355.80859375,189.2109375)"/>
</svg>
