<?xml version="1.0" encoding="UTF-8"?>
<svg xmlns="http://www.w3.org/2000/svg" xmlns:xlink="http://www.w3.org/1999/xlink" viewBox="0 0 500 500">
  <defs>
    <style>
      .cls-1 {
        fill: #ff2e23;
      }

      .cls-2, .cls-3 {
        fill: #fff;
      }

      .cls-4, .cls-5, .cls-6, .cls-7 {
        fill: none;
      }

      .cls-4, .cls-5, .cls-6, .cls-3 {
        stroke-miterlimit: 10;
      }

      .cls-4, .cls-3 {
        stroke: #000;
      }

      .cls-5 {
        stroke: #fff;
      }

      .cls-8 {
        fill: #262525;
      }

      .cls-9 {
        fill: url(#New_Pattern_2);
      }

      .cls-6 {
        stroke: #262525;
        stroke-width: 3px;
      }

      .cls-10 {
        fill: #5fb387;
        opacity: .31;
      }
    </style>
    <pattern id="New_Pattern_2" data-name="New Pattern 2" x="0" y="0" width="54" height="54" patternUnits="userSpaceOnUse" viewBox="0 0 54 54">
      <g>
        <rect class="cls-7" width="54" height="54"/>
        <rect class="cls-2" width="54" height="54"/>
        <path d="m4.33,4.61c.04-.53.5-.93,1.03-.9.53.04.93.5.9,1.03s-.5.93-1.03.9c-.53-.04-.93-.5-.9-1.03Z"/>
        <path d="m23.68,4.61c.04-.53.5-.93,1.03-.9.53.04.93.5.9,1.03s-.5.93-1.03.9c-.53-.04-.93-.5-.9-1.03Z"/>
        <path d="m41.15,4.61c.04-.53.5-.93,1.03-.9.53.04.93.5.9,1.03s-.5.93-1.03.9c-.53-.04-.93-.5-.9-1.03Z"/>
        <path d="m4.33,21.98c.04-.53.5-.93,1.03-.9s.93.5.9,1.03-.5.93-1.03.9-.93-.5-.9-1.03Z"/>
        <path d="m23.68,21.98c.04-.53.5-.93,1.03-.9s.93.5.9,1.03-.5.93-1.03.9-.93-.5-.9-1.03Z"/>
        <path d="m41.15,21.98c.04-.53.5-.93,1.03-.9s.93.5.9,1.03-.5.93-1.03.9c-.53-.04-.93-.5-.9-1.03Z"/>
        <path d="m4.33,39.34c.04-.53.5-.93,1.03-.9.53.04.93.5.9,1.03s-.5.93-1.03.9c-.53-.04-.93-.5-.9-1.03Z"/>
        <path d="m23.68,39.34c.04-.53.5-.93,1.03-.9.53.04.93.5.9,1.03s-.5.93-1.03.9c-.53-.04-.93-.5-.9-1.03Z"/>
        <path d="m41.15,39.34c.04-.53.5-.93,1.03-.9.53.04.93.5.9,1.03s-.5.93-1.03.9c-.53-.04-.93-.5-.9-1.03Z"/>
      </g>
    </pattern>
  </defs>
  <g id="BACKGROUND">
    <rect class="cls-2" width="500" height="500"/>
  </g>
  <g id="OBJEKTS">
    <g>
      <path class="cls-9" d="m67.65,315.58c-.82-.32-.7,1.5.18,1.42s1.3-1.1,1.53-1.95c6.27-23.51,4.96-48.53,11.26-72.03,5.03-18.79,14.77-36.04,20.21-54.72,4.04-13.87,5.7-28.52,11.76-41.63,8.47-18.33,25.02-32.09,43.5-40.22,12.14-5.34,25.42-8.5,38.66-7.63,24.22,1.6,52.46,10.98,74.2,21.06,13.11,6.08,26.28,12.18,40.11,16.39,23.31,7.09,48.44,8.78,70.16,19.8,26.57,13.48,45.48,41.51,48.45,71.12.7,6.93-1.02,11.84-1.88,18.4-1.21,9.25.47,19.35.98,28.64,1.08,19.6,1.98,39.28-.72,58.8"/>
      <path class="cls-10" d="m449.24,341.09H57.74c-4.84,0-8.76-3.92-8.76-8.76h0c0-4.84,3.92-8.76,8.76-8.76h391.49c4.84,0,8.76,3.92,8.76,8.76h0c0,4.84-3.92,8.76-8.76,8.76Z"/>
      <g>
        <path class="cls-1" d="m64.22,327.97v-108.11h60.11v16.46h-42.41v28.89h36.5v16.15h-36.5v29.82h42.41v16.78h-60.11Z"/>
        <path class="cls-1" d="m185.38,327.97l-16.15-45.05h-13.82v45.05h-17.71v-108.11h34.79c4.45,0,8.59.65,12.43,1.94,3.83,1.3,7.12,3.24,9.86,5.82,2.74,2.59,4.89,5.83,6.45,9.71,1.55,3.88,2.33,8.41,2.33,13.59,0,6.84-1.45,12.74-4.35,17.71-2.9,4.97-7.2,8.75-12.89,11.34l18.48,48h-19.42Zm.78-77.04c0-5.07-1.3-8.83-3.88-11.26-2.59-2.43-6.32-3.65-11.18-3.65h-15.69v30.91h15.53c4.66,0,8.36-1.34,11.11-4.04,2.74-2.69,4.12-6.68,4.12-11.96Z"/>
        <path class="cls-1" d="m267.4,327.97l-16.15-45.05h-13.82v45.05h-17.71v-108.11h34.79c4.45,0,8.59.65,12.43,1.94,3.83,1.3,7.12,3.24,9.86,5.82,2.74,2.59,4.89,5.83,6.45,9.71s2.33,8.41,2.33,13.59c0,6.84-1.45,12.74-4.35,17.71-2.9,4.97-7.2,8.75-12.89,11.34l18.48,48h-19.42Zm.78-77.04c0-5.07-1.3-8.83-3.88-11.26-2.59-2.43-6.32-3.65-11.18-3.65h-15.69v30.91h15.53c4.66,0,8.36-1.34,11.11-4.04,2.74-2.69,4.12-6.68,4.12-11.96Z"/>
        <path class="cls-1" d="m365.1,295.2c0,5.18-.8,9.84-2.41,13.98-1.61,4.14-3.88,7.69-6.84,10.64-2.95,2.95-6.45,5.2-10.48,6.76-4.04,1.55-8.49,2.33-13.36,2.33-5.9,0-10.98-.96-15.22-2.87-4.25-1.91-7.69-4.5-10.33-7.77-2.64-3.26-4.58-7.04-5.83-11.34-1.24-4.3-1.86-8.83-1.86-13.59v-40.85c0-3.83.6-7.71,1.79-11.65,1.19-3.93,3.11-7.51,5.75-10.72,2.64-3.21,6.06-5.85,10.25-7.92,4.19-2.07,9.34-3.11,15.46-3.11,5.69,0,10.61.99,14.76,2.95,4.14,1.97,7.58,4.53,10.33,7.69,2.74,3.16,4.76,6.73,6.06,10.72,1.29,3.99,1.94,8,1.94,12.04v42.72Zm-18.02-42.99c0-1.35-.23-2.93-.7-4.75-.47-1.82-1.27-3.56-2.41-5.22-1.14-1.66-2.67-3.09-4.58-4.28-1.92-1.19-4.38-1.79-7.38-1.79s-5.52.55-7.53,1.64c-2.02,1.09-3.63,2.44-4.82,4.05-1.19,1.61-2.05,3.35-2.56,5.22-.52,1.87-.78,3.63-.78,5.29l.16,41.4c0,5.19,1.19,9.55,3.57,13.07,2.38,3.53,6.42,5.29,12.12,5.29,4.04,0,7.53-1.37,10.49-4.12,2.95-2.75,4.43-6.51,4.43-11.29v-44.51Z"/>
        <path class="cls-1" d="m429.56,327.97l-16.15-45.05h-13.82v45.05h-17.71v-108.11h34.79c4.45,0,8.59.65,12.43,1.94,3.83,1.3,7.12,3.24,9.86,5.82,2.74,2.59,4.89,5.83,6.45,9.71,1.55,3.88,2.33,8.41,2.33,13.59,0,6.84-1.45,12.74-4.35,17.71-2.9,4.97-7.2,8.75-12.89,11.34l18.48,48h-19.42Zm.78-77.04c0-5.07-1.3-8.83-3.88-11.26-2.59-2.43-6.32-3.65-11.18-3.65h-15.69v30.91h15.53c4.66,0,8.36-1.34,11.11-4.04,2.74-2.69,4.12-6.68,4.12-11.96Z"/>
      </g>
      <g>
        <line class="cls-6" x1="185.32" y1="104.41" x2="185.32" y2="126.52"/>
        <rect class="cls-1" x="143.3" y="71.68" width="84.03" height="38.92"/>
        <g>
          <path class="cls-2" d="m174.54,97.26v3.51h-3.82v-3.51h-8.71v-3.37l6.73-17.28h4.03l-6.63,17.04h4.58v-6.11h3.82v6.11h1.77v3.61h-1.77Z"/>
          <path class="cls-2" d="m191.65,94.9c0,.97-.17,1.83-.5,2.57-.33.74-.79,1.37-1.37,1.89-.58.52-1.24.91-1.99,1.18-.75.27-1.54.4-2.37.4s-1.62-.13-2.37-.4c-.75-.27-1.41-.66-1.97-1.18-.57-.52-1.02-1.15-1.35-1.89-.33-.74-.5-1.6-.5-2.57v-12.39c0-.97.17-1.83.5-2.59.33-.75.79-1.39,1.37-1.91.58-.52,1.23-.91,1.97-1.18.74-.27,1.52-.4,2.35-.4s1.63.13,2.39.4c.76.27,1.42.66,1.99,1.18s1.02,1.16,1.35,1.91c.33.75.5,1.61.5,2.59v12.39Zm-3.82-12.39c0-.76-.22-1.36-.66-1.79-.44-.43-1.02-.64-1.74-.64s-1.3.21-1.74.64c-.44.43-.66,1.02-.66,1.79v12.36c0,.79.22,1.39.66,1.81.44.42,1.02.62,1.74.62s1.3-.21,1.74-.62c.44-.42.66-1.02.66-1.81v-12.36Z"/>
          <path class="cls-2" d="m206.82,97.26v3.51h-3.82v-3.51h-8.71v-3.37l6.73-17.28h4.03l-6.63,17.04h4.58v-6.11h3.82v6.11h1.77v3.61h-1.77Z"/>
        </g>
      </g>
      <path class="cls-3" d="m343.22,212.73c.89.9,1.37,2.41,1.74,3.48.74,2.12,1.44,4.25,2.13,6.39.7,2.15,1.41,4.41,1.02,6.64-.15.89-.54,1.81-1.33,2.25-.51.28-1.14.32-1.71.19-1.51-.34-2.58-1.7-3.18-3.12s-.83-2.97-1.39-4.41c-.97-2.53-2.92-5.12-5.73-5.42-1.44-.16-3.31-.3-4.31-1.51-1.03-1.24-1.1-3.96.33-4.92.47-.31,1.02-.47,1.57-.57,1.79-.34,3.56-.16,5.35-.01,1.56.12,3.25-.18,4.71.48.29.13.55.32.78.55Z"/>
      <path class="cls-3" d="m190.16,134.09c.28-1.26.55-2.53.8-3.8.54-2.68,2.01-5.46-.07-7.82-1.85-2.1-5.68-1.38-7.88-.1-2.15,1.25-3.64,3.81-3.12,6.25.45,2.1,2.44,3.76,4.58,3.84-.58,1.87-1.11,3.75-1.59,5.65-.69,2.71.97,3.66,3.4,3.15.61-.13,1.24-.27,1.73-.66.72-.57.98-1.52,1.2-2.41.33-1.36.65-2.73.95-4.09Z"/>
      <path d="m334.72,209.47c-.36-.08-.73-.16-1.09-.23-11.44-2.11-23.89-5.62-35.58-4.55-2.52.23-5.01.71-7.53.87-8.51.54-16.68-2.48-24.87-4.27-3.34-.73-6.67-1.12-10-1.81-4.07-.84-8.27.02-12.37-.52-3.58-.47-7.09-2.02-10.68-1.57-4.64.58-8.74,3.46-9.95,8.06-.61,2.3-.32,4.75.22,7.07.5,2.17,1.37,4.48,3.31,5.59,4.05,2.31,11.7.82,16.19.9,6.08.1,12.16.31,18.23.51,11.98.4,23.96.81,35.94.51,12.33-.31,24.67-.02,37.01.42.41-3.66.8-7.31,1.16-10.98Z"/>
      <path class="cls-3" d="m132.13,233.5c-1.8,1.92-2.71,4.48-3.38,6.99-.39,1.48-.56,3.06-.12,4.52.55,1.83,2.25,3.53,4.29,3.11,1.28-.26,2.34-1.66,2.29-2.96-.02-.72-.36-1.43-.91-1.89.06-.62.15-1.24.28-1.85.05-.23.11-.46.27-.63.58-.58.76.33.72.72-.04.43-.46,1.53.05,1.79.34.13.61-.31.7-.66.33-1.27.43-2.59.53-3.89.09-1.2.19-2.39.28-3.59.03-.39.06-.79-.01-1.18-.21-1.12-1.44-2.14-2.61-1.98-.87.12-1.75.79-2.4,1.48Z"/>
      <path class="cls-10" d="m366.17,168.61l-.91.43c-.26.12-.59.03-.76-.2-.85-1.14-1.74-1.88-2.76-2.51-.24-.15-.35-.45-.25-.72l.44-1.3c.11-.32-.06-.66-.37-.78l-2.64-.96c-.32-.11-.67.05-.79.36l-.49,1.3c-.1.26-.35.43-.63.4-1.2-.13-2.6,0-3.78.25-.28.06-.67-.03-.79-.29l-.58-1.22c-.15-.31-.39-.76-.69-.61l-2.55,1.21c-.31.15-.42.77-.28,1.07l.58,1.22c.12.26.09.55-.14.73-.91.73-1.67,1.6-2.31,2.58-.16.24-.45.35-.72.25l-1.22-.45c-.32-.12-.68.05-.79.37l-.92,2.61c-.11.31.05.66.36.78l1.33.52c.26.1.43.37.39.65-.16,1.19-.14,2.35.2,3.73.07.28-.07.59-.33.71l-1.14.54c-.31.15-.54.52-.39.82l1.21,2.55c.15.31.54.3.85.15l1.13-.54c.25-.12.58,0,.76.21.72.88,1.65,1.75,2.66,2.41.24.16.34.47.24.74l-.41,1.09c-.12.32.05.69.37.8l2.57.9c.33.11.68-.06.79-.39l.35-1.08c.09-.28.37-.45.67-.42,1.2.14,2.38.1,3.54-.14.28-.06.53.1.65.36l.55,1.17c.15.31.55.29.85.14l2.55-1.21c.31-.15.26-.3.12-.6l-.55-1.17c-.12-.25.06-.61.28-.79.95-.77,1.93-1.77,2.6-2.82.15-.23.48-.34.74-.25l1.18.4c.32.11.67-.06.79-.38l.94-2.6c.12-.33-.06-.69-.39-.8l-1.04-.33c-.28-.09-.46-.36-.43-.64.13-1.2.04-2.49-.18-3.6-.06-.27.06-.6.32-.72l.9-.43c.31-.15.26-.3.11-.61l-1.21-2.55c-.15-.31-.26-.51-.57-.37Zm-7.96,12.32c-2.96,1.4-6.49.14-7.89-2.82s-.14-6.49,2.82-7.89,6.49-.14,7.89,2.82.14,6.49-2.82,7.89Z"/>
      <path class="cls-10" d="m398.06,185.68l-1.22.58c-.35.17-.79.04-1.02-.27-1.15-1.54-2.35-2.54-3.73-3.38-.33-.2-.47-.61-.34-.97l.59-1.76c.15-.43-.08-.9-.5-1.05l-3.57-1.29c-.43-.15-.9.06-1.06.49l-.66,1.75c-.13.35-.48.57-.85.53-1.62-.18-3.51,0-5.11.34-.37.08-.9-.04-1.06-.39l-.78-1.64c-.2-.41-.52-1.02-.94-.83l-3.44,1.63c-.41.2-.57,1.03-.38,1.45l.78,1.64c.17.35.12.74-.19.99-1.23.99-2.26,2.17-3.12,3.49-.21.33-.61.47-.97.33l-1.64-.61c-.43-.16-.91.06-1.07.5l-1.24,3.52c-.15.42.07.89.48,1.05l1.8.7c.35.14.58.5.52.87-.22,1.6-.19,3.17.27,5.04.09.38-.09.8-.44.96l-1.54.73c-.41.2-.72.7-.53,1.11l1.63,3.44c.2.41.74.4,1.15.2l1.53-.72c.34-.16.78,0,1.02.29.97,1.19,2.23,2.36,3.59,3.25.32.21.46.64.32,1l-.55,1.47c-.17.44.06.93.5,1.08l3.47,1.22c.44.15.92-.08,1.07-.53l.47-1.46c.12-.38.5-.61.9-.56,1.61.19,3.21.13,4.77-.19.38-.08.71.13.88.48l.75,1.57c.2.41.74.39,1.15.19l3.44-1.63c.41-.2.36-.4.16-.82l-.75-1.57c-.16-.34.08-.83.37-1.07,1.29-1.04,2.6-2.39,3.51-3.81.2-.32.64-.46,1-.34l1.59.54c.43.15.91-.08,1.06-.51l1.27-3.51c.16-.44-.08-.93-.53-1.08l-1.4-.44c-.37-.12-.62-.48-.58-.87.18-1.62.05-3.37-.25-4.87-.07-.37.09-.81.43-.97l1.21-.57c.41-.2.34-.4.15-.82l-1.63-3.44c-.2-.41-.36-.69-.77-.49Zm-10.74,16.64c-3.99,1.89-8.77.19-10.66-3.81-1.89-3.99-.19-8.77,3.81-10.66,3.99-1.89,8.77-.19,10.66,3.81s.19,8.77-3.81,10.66Z"/>
      <g>
        <path class="cls-10" d="m69.52,388.65c-2.78-.45-5.63-.64-8.23-1.7-3.13-1.28-5.92-4.41-5.27-7.73.56-2.86,3.51-4.74,6.41-5.08,2.9-.34,5.78.5,8.61,1.22,4.8,1.22,9.68,2.12,14.6,2.68,7.14.81,14.88,1.12,20.46,5.63,3.71,2.99,6.41,7.78,11.09,8.66.97.18,1.98.18,2.92.48.94.3,1.86,1,1.99,1.98.28,2.02-4.68,2.25-6.09,2.64-4.09,1.12-7.97,2.61-11.99,3.77-4.24,1.22-8.78.85-13.11.46-4.35-.4-9.25-1.1-11.77-4.67-1.31-1.85-1.78-4.27-3.39-5.88-1.2-1.2-2.88-1.78-4.54-2.14-.56-.12-1.13-.22-1.69-.32Z"/>
        <g>
          <path d="m57.57,371.16c-.51,2.3.04,4.59,1.32,6.36,1.09,1.51,2.71,2.63,4.66,3.07,2.17.48,4.27.12,5.96-1.02l43.46,9.38,2.45-11.03-43.55-9.4c-1.61-1.89-3.21-3-4.9-3.37-2.05-.45-4.16-.07-5.94,1.07-1.77,1.14-3,2.9-3.46,4.95Zm6-.37s.08-.06.12-.08c.19-.09.37-.15.55-.19.04-.01.08-.03.11-.03,0,0,0,.01,0,.02.4-.07.8-.06,1.23.03.01,0,.03,0,.04,0,1.03.21,1.84,1.47,1.76,2.49-.09,1.08-.84,2.11-1.95,2.33-.01,0-.02,0-.03,0,.13-.05.26-.09.38-.14-.56.21-1.11.3-1.71.11-.58-.18-1.2-.65-1.47-1.22-.52-1.1-.26-2.76.97-3.33Z"/>
          <line class="cls-5" x1="70.03" y1="376.21" x2="113.49" y2="385.58"/>
          <line class="cls-5" x1="71.03" y1="371.89" x2="114.49" y2="381.26"/>
          <path class="cls-3" d="m107.86,382.86c-.61,2.77-.11,5.61,1.41,8,.11.18.23.36.36.53,1.52,2.11,3.74,3.57,6.3,4.13,2.4.53,4.93.21,7.12-.91l1.44-.74-8.06-5.56,4.36-6.32,7.92,5.47.1-1.71c.3-5.22-3.19-9.84-8.29-10.97-5.71-1.27-11.4,2.35-12.66,8.07Z"/>
        </g>
      </g>
      <g>
        <path class="cls-10" d="m138.95,376.29c-5.44-.61-11.96-2.57-13.15-7.91-1.03-4.64,3.01-9.15,7.56-10.5,4.55-1.35,9.42-.44,14.13.24,6.93,1,56.45,1.67,55.05,11.47-.7,4.94-24.35,5.98-28.94,6.46-11.51,1.22-23.14,1.53-34.66.23Z"/>
        <g>
          <g>
            <path d="m180.59,360.6l-.8,3.15-37.53-6.58.8-3.15,37.53,6.58Z"/>
            <path class="cls-3" d="m207.8,361.34c.08.1.15.2.22.3.98,1.39,1.36,3.07,1.06,4.72-.61,3.44-4.01,5.75-7.56,5.15l-36.55-6.19,1.88-12.05,36.81,5.63c1.66.28,3.12,1.14,4.14,2.44Z"/>
            <path class="cls-3" d="m149.71,349.4l4.83,6.89-.93,2.8-6.25,4.22-14.21-5.99,1.47-7.95,15.1.03Z"/>
          </g>
          <line class="cls-4" x1="175.48" y1="358.83" x2="209.16" y2="364.22"/>
          <line class="cls-4" x1="174.75" y1="363" x2="208.43" y2="368.39"/>
          <line class="cls-4" x1="167.93" y1="365.82" x2="170.31" y2="353.62"/>
          <line class="cls-3" x1="137.61" y1="356.98" x2="145.55" y2="360.02"/>
        </g>
      </g>
      <path class="cls-3" d="m166.96,202.04c-3.77-.53-7.66.63-11.26,1.21-1.47.29-2.94.58-4.42.87-1.84.38-3.77.63-5.48,1.44-2.62,1.23-4.49,3.63-5.97,6.11-1.52,2.54-2.73,5.25-3.95,7.95-1.97,4.39-3.72,8.83-5.53,13.24-.11.26,0,.56.27.68,2.67,1.24,5.29,2.59,7.89,3.98.12.06.26,0,.3-.12.7-2.23,9.72-17,11.84-18.04,1.11-.54,2.76-.61,3.97-.96,2.72-.79,5.37-1.8,7.93-3.01,2.36-1.12,4.63-2.42,6.79-3.88.73-.49,1.34-1.16,1.7-1.95,1.69-3.74-.21-6.98-4.08-7.52Z"/>
      <path class="cls-3" d="m281.31,255c-.75-1.25-1.53-2.5-2.15-3.85-.36-.78-.72-1.59-1.35-2.17-.92-.84-2.24-1.04-3.48-1.21-1.81-.24-3.67-.48-5.45-.04-.73.18-1.46.49-1.99,1.03-1.49,1.52-.07,4.23,1.39,5.27,1.59,1.12,3.49,1.36,5.03,2.62,1.53,1.26,2.45,3.11,3.29,4.86.83,1.72,1.66,3.43,2.49,5.15.16.32.35.68.69.79.19.06.4.03.6,0,2.12-.48,3.38-2.8,3.45-4.97.1-2.89-1.15-5.18-2.52-7.48Z"/>
      <path class="cls-3" d="m150.4,216.56c1.41,1.29,3.13,2.31,4.72,2.77,1.9.55,4.18.18,5.43-1.35,1.14-1.41,1.55-3.79,3.35-4.06.53-.08,1.06.07,1.56.24,2.51.83,5,2.22,7.62,1.83,1.67-.25,3.18-1.22,4.31-2.49,1.29-1.46,2.14-3.44,1.76-5.36-.76-3.84-5.72-4.66-8.88-4.84-4.27-.26-8.65-.21-12.83-1.15-3.09-.7-5.72-.55-8.16,1.99-2.3,2.4-2.71,6.28-1.29,9.29.52,1.1,1.39,2.18,2.42,3.13Z"/>
      <path class="cls-3" d="m174.43,192.83c-5.11.52-6.73,3.92-9.37,7.78-2.18,3.2-4.24,7.94-1.42,11.3,2.27,2.71,5.27,3.92,8.23,5.63,2.51,1.44,4.53,2.56,7.72,2.43,7.75-.32,15.59.55,23.42.51,5.01-.03,9.82.01,14.64-1.51,4.22-1.33,5.74-5.43,6.85-9.51,1.13-4.16,1.72-10.11-1.18-13.77-.37-.47-.8-.9-1.3-1.29-.73-.57-1.58-.95-2.44-1.3-1.63-.67-3.42-1.26-5.14-.86-.39.09-.76.23-1.14.35-3.5,1.06-6.93,1.51-10.58,1.9-4.11.44-8.36.04-12.45-.38-5.2-.53-10.64-1.81-15.87-1.28Z"/>
      <path d="m270.4,252.48c.23-1.36.7-5.01-.21-5.9-.87-.85-2.09-.94-3.19-1.19-1.44-.33-2.87-.83-4.29-1.24-2.94-.85-5.88-1.7-8.82-2.56-4.79-1.4-9.34-3.13-13.94-5.05-6.23-2.59-12.7-5.51-19.41-4.82-1.6.16-3.07.76-4.62,1.09-1.72.37-3.54,1-4.96,2.06-2.19,1.63-2.73,4.48-1.79,6.97,2.28,6.04,8.47,6.33,13.81,7.76,2.77.74,5.72.88,8.57,1.13,9.58.82,19.14,1.95,28.64,3.38,2.41.36,4.81.74,7.21,1.15.66.11,1.5.37,2.28.45.27-1.06.53-2.13.72-3.22Z"/>
      <path d="m212.99,246.3c.41.11.83.12,1.27,0,5.08-1.3,9.5-5.83,12.55-9.85,4.89-6.46,7.87-14.03,12.47-20.62,1.41-2.02,3.31-3.42,4.48-5.59,2.08-3.85,3.08-9.01,2.28-13.33-1.56-8.35-11.23-10.81-18.58-9.57-4.82.81-9.12,3.61-13.92,4.51-.6.11-1.24.21-1.72.59-.16.12-.27.36-.35.66.02,5.85.05,11.69-.04,17.55-.05,3.64.37,8.31-.12,11.3-.3,1.84-1.76,3.87-2.34,5.7-1.36,4.29-1.79,8.89-.28,13.21.62,1.77,2.22,4.89,4.31,5.45Z"/>
      <path class="cls-8" d="m186.89,208.63c.09.19.19.38.28.56"/>
      <path class="cls-3" d="m185.36,202.44c1.68-2.74,3.19-5.85,4.41-9.1,1.58-4.18,2.69-8.59,3.13-12.7.41-3.83.18-7.7-.06-11.54-.68-11.28-.85-22.74-2.08-33.97-1.16.58-9.55,1.36-9.51,1.08-1.53,12.5-3.07,25-4.6,37.5-.36,2.95-.73,5.92-1.69,8.73-1,2.91-2.6,5.57-4.09,8.26-2.54,4.58-8.43,12.69-7.3,17.98"/>
      <path class="cls-5" d="m211.68,221.03c3.17-6.07,7-11.79,11.4-17.04"/>
      <path d="m187.81,206.67c-.19-1.62-.52-3.18-.69-4.81-.08-.8-.17-1.61-.4-2.38-.02-.07-.05-.14-.08-.21-1.58,3.26-4.42,5.77-7.33,7.92,2.72,1.53,5.43,3.05,8.15,4.58.77.43.42-4.52.35-5.1Z"/>
      <path d="m159.03,208.13c0,.53-.44,1.14-.75,1.51,4.76,2.4,5.6,12.11,5.14,16.71-.31,3.1-1.22,6.12-1.47,9.22-.38,4.61.8,9.5,3.96,12.87,3.83,4.1,10.26,5.36,15.51,3.37,5.25-1.98,9.16-6.92,10.31-12.41,2.83-13.49-10.31-25.39-18.7-34.09-3.31-3.43-7.51-5.85-12.41-5.65-1.48.06-2.94.34-4.39.67-3.68.85-7.02,2.18-8.92,5.55-1.15,2.03-3.19,3.58-3.8,5.84-.45,1.67.04,3.6,1.33,4.75,1.29,1.16,3.33,1.43,4.82.54,3.29-1.96,2.22-9.19,6.66-8.97-.1-.39.2-.8.56-.96.37-.17.79-.16,1.19-.15.18,0,.37.01.54.09.38.17.43.75.44,1.11Z"/>
      <path class="cls-3" d="m156.52,218.26c-.34-1.04-.09-2.25.64-3.06"/>
      <path class="cls-5" d="m245,205.4c-1.9,4.85-5.62,8.82-7.46,13.7"/>
      <g>
        <path class="cls-10" d="m378.73,368.33c-.4.73-.61,1.52-.58,2.4.07,1.64,1.31,3.06,2.8,3.75,1.49.69,3.18.77,4.82.72,5.17-.18,10.2-1.63,14.98-3.54,4.23-1.69,9.29-3.4,12.58-6.64.83-.82,1.39-2.15.75-3.12-.47-.72-1.41-.95-2.26-1.09-6.41-1.1-13.05-.79-19.35.81-3.57.91-11.52,2.72-13.74,6.73Z"/>
        <g>
          <path d="m405.53,319.51c0-.17.03-.34.06-.51.31-1.87,1.78-3.29,2.79-4.9.98-1.56,1.54-3.38,1.62-5.22.14-3.45.04-7.88,1.53-11.08,1.34-2.88,4.53-4.45,6.16-7.15.9-1.5,1.18-3.27,1.58-4.97.64-2.71,1.67-5.38,3.48-7.49,1.41-1.64,3.24-2.86,5.03-4.06,1.75-1.17,3.52-2.35,5.51-3.05,2.61-.92,5.5-1.22,6.71,1.46.98,2.17.48,5.24-.55,7.28-.89,1.78-2.31,3.22-3.64,4.7-2.31,2.56-4.43,5.3-6.33,8.17-.53.8-1.06,1.65-1.18,2.61-.12.93.17,1.85.28,2.78.59,4.7-1.35,8.5-4.98,11.36-2.87,2.26-4.65,3.54-5.38,7.45-.45,2.42-.65,4.99-1.99,7.05-.55.84-1.27,1.56-1.92,2.32-2.42,2.84-3.92,6.44-4.25,10.15-.16,1.86-.56,6.05-3.54,5.2-3.65-1.03-3.21-11.7-2.14-14.23.46-1.07,1.14-2.07,1.36-3.22.29-1.53-.3-3.12-.22-4.66Z"/>
          <path class="cls-3" d="m390.06,327.29c-.03-1.36.17-2.77.64-4.24.58-1.78,1.52-3.56,1.24-5.41-.47-3.06-3.99-4.72-5.09-7.61-1.5-3.96,2.03-7.94,2.82-12.1.67-3.53-.68-7.08-1.59-10.55-.39-1.5-2.62-10.03,1.81-8.67.7.22,1.15.89,1.49,1.53,2.15,4.09,2.69,9.27,6.12,12.63,1.4,1.38,3.22,2.3,4.55,3.74,2.11,2.3,2.73,5.69,2.25,8.78-.84,5.39-6.16,9-4.03,14.52.88,2.3,2.4,4.29,3.64,6.41,2.57,4.41,7.8,22.11-2.72,16-5.58-3.24-10.98-8.52-11.12-15.04Z"/>
          <path class="cls-3" d="m410.8,327.66c.06-.12.12-.23.18-.35,1.31-2.5,3.05-4.75,4.4-7.23,1.09-2.01,1.92-4.17,3.14-6.11s2.92-3.7,5.11-4.37c1.35-.41,3.54-.16,4.6.85.35.33.61.74.95,1.08.61.62,1.42.99,2.16,1.44,3.79,2.29,5.42,6.61,6.8,10.59,1.51,4.36,3.35,8.06,3.96,12.65.14,1.03.23,2.22-.49,2.98-.6.64-1.62.73-2.45.45-.83-.28-1.52-.87-2.16-1.47-.84-.78-1.66-1.61-2.17-2.63-.43-.87-.62-1.84-1.11-2.68-.58-1-1.53-1.71-2.41-2.47-2.55-2.2-4.11-4.84-5.92-7.58-1.83.75-3.63,3.14-5.61,4.19-1.73.92-4.62,1.25-5.58,3.17-.95,1.89-.51,4.63-1.19,6.7-1.52,4.61-5.07,3.95-4.58-.96.29-2.86,1.1-5.67,2.39-8.25Z"/>
          <polygon points="422 336.46 388.02 336.46 388.02 340.7 390.75 340.7 394.75 363.36 415.27 363.36 419.27 340.7 422 340.7 422 336.46"/>
          <line class="cls-5" x1="389.79" y1="341.06" x2="420.23" y2="341.06"/>
          <g>
            <circle cx="389.68" cy="307.23" r=".83"/>
            <path d="m397.97,310.54c0,.46-.37.83-.83.83s-.83-.37-.83-.83.37-.83.83-.83.83.37.83.83Z"/>
            <path d="m396.31,319.66c0,.46-.37.83-.83.83s-.83-.37-.83-.83.37-.83.83-.83.83.37.83.83Z"/>
            <path d="m401.28,301.43c0,.46-.37.83-.83.83s-.83-.37-.83-.83.37-.83.83-.83.83.37.83.83Z"/>
            <path d="m391.34,284.86c0,.46-.37.83-.83.83s-.83-.37-.83-.83.37-.83.83-.83.83.37.83.83Z"/>
            <circle cx="402.11" cy="329.6" r=".83"/>
            <path d="m395.48,327.95c0,.46-.37.83-.83.83s-.83-.37-.83-.83.37-.83.83-.83.83.37.83.83Z"/>
            <path d="m394.65,297.29c0,.46-.37.83-.83.83s-.83-.37-.83-.83.37-.83.83-.83.83.37.83.83Z"/>
          </g>
        </g>
      </g>
      <g>
        <path class="cls-10" d="m234.63,416.5c-5.62-1.12-11.2-2.54-16.72-4.08-5.19-1.44-10.66-3.18-14.15-7.28-10.5-12.31,6.62-25.02,15.68-30.32,7.4-4.33,16.21-9.42,25.04-8.14,5.01.72,9.73,2.77,14.34,4.87,15.37,7,30.73,14.87,47.47,17.13,3.51.47,32.59,1.24,31.26,5.98-.23.83-.92,1.45-1.59,2-6.11,4.95-13.73,7.59-21.19,10.1-18.84,6.32-38.17,12.44-58.04,12.23-7.43-.08-14.79-1.04-22.08-2.5Z"/>
        <g>
          <path d="m244.98,379.43c-2.44,4.46,1.37,7.68,4.55,10.68.87.82,1.81,1.6,2.9,2.07,1.9.81,4.06.62,6.12.39,14.76-1.64,29.8-3.63,44.31-6.75,3.41-.73,6.79-1.63,10.19-2.4,4.43-1,9.04-2.93,13.27-4.62,4.3-1.71,8.31-4.13,11.83-7.13.06-.05.12-.11.18-.16.61-.37,1.14-.81,1.56-1.56,1.82-2.08,3.08-4.67,2.03-7.09-1.21-2.79-4.74-3.59-7.77-3.83-9.05-.72-18.12.26-27.07,1.6-6.03.91-12.01,2.19-18.07,2.94-6.16.76-12.04.08-18.17.22-10.6.24-20.78,6.31-25.88,15.63Z"/>
          <path class="cls-3" d="m271.26,357.4c-3.75-1.48-7.61-.09-9.67-4.36-.75-1.54-1.1-3.24-1.64-4.86-1.7-5.02-5.42-9.31-10.15-11.71,3.69-3.47,8.63-5.21,13.12-7.55,4.12-2.14,7.95-4.86,11.33-8.04,3.12-2.93,7.95-9.21,5.37-13.77-2.08-3.67-7.24-2.52-10.58-1.67-4.65,1.19-8.7,1.41-12.9,4.15-4.04,2.64-7.36,6.2-10.62,9.76-5.09,5.55-16.19,16.4-8.93,24.19,4.11,4.41,8.35,8.63,13.31,12.08,1.4.97,2.84,1.9,4.39,2.58,3.08,1.36,4.27,3.87,7.36,5.25,2.57,1.15,5.31,1.99,8.13,2.13,2.09.1,5.48-.38,5.68-2.9.19-2.37-2.22-4.52-4.19-5.29Z"/>
          <path class="cls-3" d="m323.64,350.6c-1.82,2.41-4.87,3.99-7.78,3.31-3.08-.72-5.12-3.59-6.78-6.29-2.63-4.29-5.09-8.76-6.41-13.62-1.45-5.35-2.13-13.86,3.18-17.41,3.78-2.53,9.95-1.09,12.87,2.14,6.3,6.98,10.47,22.18,5.6,30.84-.2.36-.43.7-.67,1.03Z"/>
          <path d="m314.01,307.86c-4.67-4.94-10.22-8.58-17.5-8.39-1.96.05-3.91.37-5.87.44-6.88.24-13.69-1.47-20.32,1.17-7.07,2.83-13.63,6.87-19.83,11.25-.5.35,11.6,16.95,12.89,18.46,5.01-3.67,3.81,13.62,3.73,15.96-.2,5.82-.34,11.71.85,17.44.29-.4.63-.84,1.11-.94.59-.13.96.58,1.49.71,1.12.28,2.7-.01,3.86-.02,2.22,0,4.45,0,6.68-.02,5.13-.04,10.27-.06,15.35-.78,2.66-.37,5.29-.75,7.93-.71,1.39-4.83.91-10.65,1.04-15.45.14-4.62-.23-9.14.13-13.74,6.55-1.62,12.99-3.7,19.25-6.22.38-.15-3-7.83-3.37-8.57-1.44-2.88-3.16-5.63-5.23-8.11-.71-.86-1.44-1.69-2.2-2.49Z"/>
          <path class="cls-3" d="m277.53,394.07c-.95.95-20.96,5.34-20.96,5.34l-.94-10.17,18.61-6.66,3.28,11.49Z"/>
          <path d="m328.15,381.92c2.34-1.34,4.67-2.68,7.19-3.63,2.67-1,5.62-1.62,7.68-3.59,2.17-2.09,2.86-5.25,3.44-8.21.65-3.29.64-6.98-.27-10.23-1.29-4.62-5.03-8.5-9.74-9.57-2.84-.64-5.9-.27-8.51,1.04-1.92.97-3.56,2.41-5.46,3.42-1.58.84-3.31,1.37-4.98,2.02-5.08,1.98-9.75,4.93-14.37,7.73-4.65,2.81-8.81,6.34-13.3,9.38-1.77,1.2-20.41,10.25-20.41,10.25,2.42,5.38,4.53,10.92,6.74,16.4,12.05-1.63,23.67-5.42,35.39-8.57,2.32-.62,4.48-1.56,6.81-2.09,2.63-.6,5.09-1.76,7.44-3.04.78-.43,1.56-.87,2.34-1.32Z"/>
          <path d="m255.9,400.48c-3.69.73-7.39-.06-11.37-.49-3.1-.33-6.28.24-9.36-.24-4.12-.63-7.32-3.55-7.62-7.66-.17-2.32-.26-4.9,1.27-6.65,1.25-1.43,3.32-1.91,5.21-1.73,1.89.17,3.68.9,5.48,1.52,3.07,1.06,6.24,1.82,9.42,2.49,2.57.55,4.79,1.83,7.34.56.14-.07.29-.14.44-.09.15.05.23.23.28.38.91,2.56,1.73,5.14,2.45,7.76.38,1.36,1,2.15-.11,2.99-.88.66-2.37.96-3.43,1.17Z"/>
          <path class="cls-3" d="m295.77,394.07c.95.95,20.96,5.34,20.96,5.34l.94-10.17-18.61-6.66-3.28,11.49Z"/>
          <path d="m244.47,383.11c-3.85-1.45-7.59-3.16-11.13-5.29-1.19-.72-2.37-1.5-3.22-2.6-1.2-1.55-1.6-3.56-1.97-5.49-1.37-7.19-3.3-12.67,1.91-18.78,4.24-4.97,11.06-6.9,16.83-3.31,3.75,2.33,6.27,6.56,10.43,8.03,2.24.79,4.81.63,6.97,1.64,1.99.92,3.96,2.45,5.87,3.6,4.65,2.81,8.81,6.34,13.3,9.38,1.77,1.2,20.41,10.25,20.41,10.25-2.42,5.38-4.53,10.92-6.74,16.4-12.05-1.63-23.67-5.42-35.39-8.57-5.8-1.56-11.66-3.14-17.27-5.26Z"/>
          <path d="m317.4,400.48c3.69.73,7.39-.06,11.37-.49,3.1-.33,6.28.24,9.36-.24,3.9-.6,8.34-4.47,8.52-8.6.05-1.29-.28-2.57-.77-3.77-.26-.63-.56-1.25-.98-1.78-.95-1.2-2.45-1.9-3.98-2.04-2.34-.22-4.68.54-6.89,1.19-2.28.67-4.38,1.03-6.59,1.98-2.83,1.22-6,1.66-9.06,1.25-.8-.11-1.62-.27-2.39-.04-1.73.51-1.56,3.11-1.69,4.54-.2,2.15-.3,4.36-1.17,6.37,1.43.84,2.85,1.35,4.28,1.63Z"/>
          <path class="cls-3" d="m308.48,316.85s0-.06,0-.09c-.05-.84-.1-1.69-.15-2.53-.03-.44-.05-.88.02-1.31.21-1.32,1.26-2.32,2.24-3.22.75-.68,7.03-6.82,7.51-6.46,1.96,1.49,3.17.16,4.6-1.37.44-.47.88-1.02.87-1.66-.02-.64-.79-1.24-1.3-.86,1.14-1.26,2.25-2.55,3.32-3.86.95-1.16,1.89-1.87,1.24-3.4-1.04-2.47-3.21-4.33-5.61-5.5-1.9-.93-4.95-2.23-7.11-2.07-2.39.18-3.62,2.19-5.41,3.42-.08.05-.17.11-.26.1-.11,0-.2-.1-.29-.18-.66-.6-1.75-.49-2.47.05-.72.53-1.13,1.38-1.46,2.21-.21.53-.39,1.11-.29,1.67.11.56.61,1.09,1.18,1.03-.45.07-1.19,3.47-1.31,3.91-.61,2.16-1.94,3.38-3.45,5.05-1.36,1.51-3.01,3.14-5.04,3.05-.9-.04-2.02-.34-2.54.4-.18.25-.22.56-.25.87-.36,4.45,2.5,8.4,6.09,10.74,1.88,1.23,10.05,4.58,9.88.03Z"/>
          <path class="cls-1" d="m256.02,335.11h51.21c.92,0,1.66.74,1.66,1.66v30.89c0,.92-.74,1.66-1.66,1.66h-51.21c-.92,0-1.66-.74-1.66-1.66v-30.89c0-.92.74-1.66,1.66-1.66Z"/>
          <path d="m284.83,351.15c0,1.77-1.44,3.21-3.21,3.21s-3.21-1.44-3.21-3.21,1.44-3.21,3.21-3.21,3.21,1.44,3.21,3.21Z"/>
          <path d="m331.71,286.05c-.05-.33-.14-.67-.26-.98-.33-.84-.9-1.59-1.7-2-.62-.32-1.32-.43-2.01-.48-.81-.07-1.62-.08-2.43-.03-.78.04-1.56.14-2.34.09-1.22-.08-2.38-.51-3.51-.95-1.14-.43-2.3-.88-3.51-.97-2.52-.2-4.31,1.73-5.83,3.5-1.7,1.99-3,4.29-4.23,6.59-2.4,4.45-3.13,9.96,1.39,13.42,5.92,4.53,12.97-1.65,17.4-5.43.91-.77,1.93-1.29,2.74-2.2.9-1,1.59-2.17,2.22-3.35.62-1.15,1.19-2.33,1.61-3.57.4-1.17.65-2.42.47-3.64Zm-20.15,14.98c-.91-.21-1.91-.5-2.66-1.08-.54-.41.08-1.29.6-.86.63.52,1.56.72,2.33.93.58.16.31,1.14-.27,1.01Zm14.12-7.81c-.17.64-.55,1.21-.97,1.76-1.87,2.47-4.58,5.59-7.3,7.13-.1.06-.21.11-.31.16-.74-2.54-1.66-5.05-3.99-6.55-2.04-1.31-4.46-1.52-6.81-1.21.84-3.52,3.53-8.92,7.64-8.97,1.53-.02,2.97.69,4.22,1.56,1.25.88,2.37,1.93,3.65,2.76,1.44.94,4.45,1.11,3.86,3.34Z"/>
          <path class="cls-3" d="m316.89,305c.12-.31.26-.61.4-.91,1.11-2.31,3.57-3.27,5.48-4.92,1.18-1.01,2.39-1.81,3.62-2.75.59-.45,1.07-1.13,1.69-1.51.4-.24.95-.29,1.3.03.27.24.34.64.37,1,.16,2.38-1.17,4.23-2.33,6.15-1.02,1.68-2.61,2.73-3.67,4.36-1.04,1.6-.87,3.67-.66,5.57.35,3.19.7,6.38,1.05,9.57.33,2.99,1.08,5.49,1.79,8.39,1.1,4.44,1.03,9.61,1.11,14.16.09,4.57-2.94,10.05-7.68,11.01-9.54,1.93-7.47-11.55-7.72-16.97-.2-4.31.83-8.71,1.8-12.86,1.02-4.34,1.13-8.83,1.76-13.23.34-2.36.78-4.84,1.69-7.08Z"/>
          <path class="cls-2" d="m316.86,350.32c.01.4,0,.78-.06,1.12-.14.84-.74,1.66-1.58,1.79-.9.14-1.71-.52-2.32-1.19-2.43-2.68-3.69-6.15-3.65-9.75.01-1.02.12-2.1.71-2.93.59-.84,1.8-1.31,2.67-.77.59.36.87,1.06,1.11,1.71.81,2.18,1.62,4.37,2.43,6.55.35.94.66,2.3.7,3.48Z"/>
          <path d="m320.24,351.15c-.46.3-.96.51-1.51.45-.41-.05-.46.58-.09.69.82.24,1.59.05,2.11-.64.23-.3-.21-.7-.51-.51Z"/>
          <path d="m237.94,338.85c-.41-.39-.67-.93-.59-1.51.06-.42-.11-.84-.55-.97-.37-.11-.91.13-.97.55-.17,1.14.14,2.24.99,3.04.74.7,1.85-.42,1.11-1.11Z"/>
          <path class="cls-5" d="m268,390.87c4.98,1.22,10.01,2.23,15.08,3.03"/>
          <path class="cls-5" d="m301.51,386.11c.68-1.58,1.39-3.15,2.14-4.7-6.49-3.64-12.81-7.52-19.23-11.26"/>
          <path class="cls-5" d="m259.7,387.54c-4.72-1.13-9.36-2.61-13.86-4.42"/>
        </g>
      </g>
    </g>
  </g>
</svg>