<?xml version="1.0" encoding="UTF-8"?>
<svg xmlns="http://www.w3.org/2000/svg" viewBox="0 0 500 500">
  <defs>
    <style>
      .cls-1 {
        fill: #fff;
      }

      .cls-2, .cls-3 {
        stroke-width: 2.16px;
      }

      .cls-2, .cls-3, .cls-4, .cls-5, .cls-6, .cls-7 {
        fill: none;
        stroke: #000;
      }

      .cls-2, .cls-3, .cls-4, .cls-6, .cls-7 {
        strokeLinecap: round;
        stroke-linejoin: round;
      }

      .cls-3 {
        stroke-dasharray: 0 0 3.27 7.62;
      }

      .cls-8 {
        letter-spacing: 0em;
      }

      .cls-4 {
        stroke-dasharray: 0 0 3.05 7.11;
        stroke-width: 2.02px;
      }

      .cls-9 {
        letter-spacing: 0em;
      }

      .cls-10 {
        letter-spacing: 0em;
      }

      .cls-11 {
        letter-spacing: 0em;
      }

      .cls-5 {
        stroke-miterlimit: 10;
        stroke-width: 3.27px;
      }

      .cls-12 {
        font-family: OpenSans-Extrabold, 'OpenSans Extrabold';
        font-size: 37.19px;
        font-weight: 700;
      }

      .cls-6 {
        stroke-width: 2.26px;
      }

      .cls-13 {
        fill: #fde047;
      }

      .cls-14 {
        letter-spacing: 0em;
      }

      .cls-15 {
        letter-spacing: -.01em;
      }

      .cls-7 {
        stroke-width: 2.42px;
      }

      .cls-16 {
        font-family: MyriadPro-Regular, 'Myriad Pro';
        font-size: 13.07px;
      }
    </style>
  </defs>
  <g id="BACKGROUND">
    <rect class="cls-1" width="500" height="500"/>
  </g>
  <g id="OBJECTS_copia" data-name="OBJECTS copia">
    <g>
      <path class="cls-13" d="m195.83,287.64h-13.11v23.05h-31.76v-23.05h-47.48v-23.62l49.52-72.4h29.73v71.99h13.11v24.03Zm-44.87-24.03v-13.85c0-2.61.09-6.12.28-10.55.19-4.42.34-6.75.45-6.96h-.9c-1.85,4.18-3.94,8.09-6.27,11.73l-13.19,19.63h19.63Z"/>
      <path class="cls-13" d="m290.22,251.31c0,21.07-3.53,36.5-10.59,46.3-7.06,9.8-17.86,14.7-32.41,14.7s-24.95-5.12-32.17-15.35c-7.22-10.23-10.83-25.45-10.83-45.65s3.53-36.7,10.59-46.59c7.06-9.88,17.86-14.82,32.41-14.82s24.88,5.14,32.13,15.43c7.25,10.29,10.87,25.61,10.87,45.97Zm-54,0c0,13.47.84,22.72,2.53,27.77,1.68,5.05,4.51,7.57,8.47,7.57s6.85-2.61,8.51-7.82c1.66-5.21,2.48-14.39,2.48-27.53s-.84-22.44-2.52-27.73c-1.68-5.29-4.51-7.94-8.47-7.94s-6.79,2.55-8.47,7.66c-1.68,5.1-2.53,14.44-2.53,28.02Z"/>
      <path class="cls-13" d="m391.29,287.64h-13.11v23.05h-31.76v-23.05h-47.48v-23.62l49.52-72.4h29.73v71.99h13.11v24.03Zm-44.87-24.03v-13.85c0-2.61.09-6.12.29-10.55.19-4.42.34-6.75.45-6.96h-.9c-1.85,4.18-3.94,8.09-6.27,11.73l-13.19,19.63h19.63Z"/>
    </g>
    <g>
      <line class="cls-2" x1="55.75" y1="218.04" x2="103.89" y2="218.04"/>
      <line class="cls-2" x1="115.44" y1="218.04" x2="125.72" y2="218.04"/>
      <line class="cls-2" x1="47.03" y1="204.49" x2="133.21" y2="204.49"/>
      <line class="cls-2" x1="39.94" y1="204.49" x2="32.85" y2="204.49"/>
      <line class="cls-2" x1="47.03" y1="191.62" x2="75.64" y2="191.62"/>
      <line class="cls-2" x1="83.3" y1="191.62" x2="143.39" y2="191.62"/>
    </g>
    <g>
      <line class="cls-2" x1="396.01" y1="325.52" x2="447.52" y2="325.52"/>
      <line class="cls-2" x1="455.9" y1="325.52" x2="463.35" y2="325.52"/>
      <line class="cls-2" x1="406.3" y1="311.98" x2="473.8" y2="311.98"/>
      <line class="cls-2" x1="401.15" y1="311.98" x2="396.01" y2="311.98"/>
      <line class="cls-2" x1="396.01" y1="299.1" x2="427.04" y2="299.1"/>
      <line class="cls-2" x1="432.6" y1="299.1" x2="455.9" y2="299.1"/>
    </g>
    <g>
      <path class="cls-5" d="m201.99,287.18h-13.11v23.05h-31.76v-23.05h-47.48v-23.62l49.52-72.4h29.73v71.99h13.11v24.03Zm-44.87-24.03v-13.85c0-2.61.09-6.12.28-10.55.19-4.42.34-6.75.45-6.96h-.9c-1.85,4.18-3.94,8.09-6.27,11.73l-13.19,19.63h19.63Z"/>
      <path class="cls-5" d="m296.38,250.86c0,21.07-3.53,36.5-10.59,46.3-7.06,9.8-17.86,14.7-32.41,14.7s-24.95-5.12-32.17-15.35c-7.22-10.23-10.83-25.45-10.83-45.65s3.53-36.7,10.59-46.59c7.06-9.88,17.86-14.82,32.41-14.82s24.88,5.14,32.13,15.43c7.25,10.29,10.87,25.61,10.87,45.97Zm-54,0c0,13.47.84,22.72,2.53,27.77,1.68,5.05,4.51,7.57,8.47,7.57s6.85-2.61,8.51-7.82c1.66-5.21,2.48-14.39,2.48-27.53s-.84-22.44-2.52-27.73c-1.68-5.29-4.51-7.94-8.47-7.94s-6.79,2.55-8.47,7.65c-1.68,5.1-2.53,14.44-2.53,28.02Z"/>
      <path class="cls-5" d="m397.45,287.18h-13.11v23.05h-31.76v-23.05h-47.48v-23.62l49.52-72.4h29.73v71.99h13.11v24.03Zm-44.87-24.03v-13.85c0-2.61.09-6.12.29-10.55.19-4.42.34-6.75.45-6.96h-.9c-1.85,4.18-3.94,8.09-6.27,11.73l-13.19,19.63h19.63Z"/>
    </g>
    <text class="cls-12" transform="translate(190.38 362.4)"><tspan x="0" y="0">ER</tspan><tspan class="cls-9" x="38.3" y="0">R</tspan><tspan class="cls-8" x="58.42" y="0">OR</tspan></text>
    <g>
      <line class="cls-2" x1="418.49" y1="215.1" x2="418.49" y2="204.06"/>
      <line class="cls-2" x1="410.78" y1="218.29" x2="402.98" y2="210.49"/>
      <line class="cls-2" x1="407.59" y1="226" x2="396.55" y2="226"/>
      <line class="cls-2" x1="410.78" y1="233.7" x2="402.98" y2="241.51"/>
      <line class="cls-2" x1="418.49" y1="236.9" x2="418.49" y2="247.93"/>
      <line class="cls-2" x1="426.19" y1="233.7" x2="434" y2="241.51"/>
      <line class="cls-2" x1="429.39" y1="226" x2="440.43" y2="226"/>
      <line class="cls-2" x1="426.19" y1="218.29" x2="434" y2="210.49"/>
    </g>
    <g>
      <line class="cls-2" x1="72.26" y1="270.07" x2="72.26" y2="262.09"/>
      <line class="cls-2" x1="66.69" y1="272.37" x2="61.05" y2="266.73"/>
      <line class="cls-2" x1="64.38" y1="277.94" x2="56.4" y2="277.94"/>
      <line class="cls-2" x1="66.69" y1="283.51" x2="61.05" y2="289.16"/>
      <line class="cls-2" x1="72.26" y1="285.82" x2="72.26" y2="293.8"/>
      <line class="cls-2" x1="77.83" y1="283.51" x2="83.47" y2="289.16"/>
      <line class="cls-2" x1="80.14" y1="277.94" x2="88.12" y2="277.94"/>
      <line class="cls-2" x1="77.83" y1="272.37" x2="83.47" y2="266.73"/>
    </g>
    <g>
      <line class="cls-2" x1="288.18" y1="105.25" x2="288.18" y2="97.27"/>
      <line class="cls-2" x1="282.61" y1="107.56" x2="276.97" y2="101.92"/>
      <line class="cls-2" x1="280.31" y1="113.13" x2="272.33" y2="113.13"/>
      <line class="cls-2" x1="282.61" y1="118.7" x2="276.97" y2="124.34"/>
      <line class="cls-2" x1="288.18" y1="121.01" x2="288.18" y2="128.99"/>
      <line class="cls-2" x1="293.75" y1="118.7" x2="299.39" y2="124.34"/>
      <line class="cls-2" x1="296.06" y1="113.13" x2="304.04" y2="113.13"/>
      <line class="cls-2" x1="293.75" y1="107.56" x2="299.39" y2="101.92"/>
    </g>
    <rect class="cls-7" x="111.87" y="326.89" width="273.76" height="43.1"/>
    <text class="cls-16" transform="translate(154.63 395.55)"><tspan class="cls-14" x="0" y="0">T</tspan><tspan x="6.4" y="0">he </tspan><tspan class="cls-15" x="22.98" y="0">r</tspan><tspan x="27.12" y="0">eques</tspan><tspan class="cls-10" x="59.95" y="0">t</tspan><tspan x="64.2" y="0">ed page does not </tspan><tspan class="cls-11" x="161.82" y="0">e</tspan><tspan x="168.33" y="0">xis</tspan><tspan class="cls-11" x="182.61" y="0">t</tspan><tspan x="186.9" y="0">.</tspan></text>
    <polyline class="cls-2" points="133.21 172.2 133.21 137.67 312.7 137.67 312.7 214.39"/>
    <polyline class="cls-2" points="249.44 113.13 249.44 156.36 368.46 156.36 368.46 176.03"/>
    <path class="cls-2" d="m137.49,176.48c0,2.37-1.92,4.28-4.28,4.28s-4.28-1.92-4.28-4.28,1.92-4.28,4.28-4.28,4.28,1.92,4.28,4.28Z"/>
    <circle class="cls-2" cx="249.44" cy="108.85" r="4.28"/>
    <path class="cls-2" d="m372.75,180.76c0,2.37-1.92,4.28-4.28,4.28s-4.28-1.92-4.28-4.28,1.92-4.28,4.28-4.28,4.28,1.92,4.28,4.28Z"/>
    <path class="cls-2" d="m316.98,219.38c0,2.37-1.92,4.28-4.28,4.28s-4.28-1.92-4.28-4.28,1.92-4.28,4.28-4.28,4.28,1.92,4.28,4.28Z"/>
    <g>
      <line class="cls-2" x1="105.3" y1="305.16" x2="95.16" y2="315.3"/>
      <line class="cls-2" x1="95.16" y1="305.16" x2="105.3" y2="315.3"/>
    </g>
    <g>
      <line class="cls-2" x1="110.36" y1="158" x2="100.23" y2="168.13"/>
      <line class="cls-2" x1="100.23" y1="158" x2="110.36" y2="168.13"/>
    </g>
    <g>
      <line class="cls-2" x1="439.07" y1="272.88" x2="428.93" y2="283.01"/>
      <line class="cls-2" x1="428.93" y1="272.88" x2="439.07" y2="283.01"/>
    </g>
    <path class="cls-6" d="m151.47,100.16c-3.23,0-6.19,1.16-8.49,3.09-2.35-7.06-8.99-12.16-16.84-12.16-8.79,0-16.06,6.39-17.49,14.77-.93-.27-1.9-.42-2.91-.42-5.84,0-10.58,4.74-10.58,10.58,0,5.37,4.01,9.8,9.2,10.48v.1h47.11c7.3,0,13.22-5.92,13.22-13.22s-5.92-13.22-13.22-13.22Z"/>
    <path class="cls-2" d="m396.6,167.42c2.35,0,4.5.84,6.17,2.24,1.7-5.13,6.53-8.83,12.24-8.83,6.38,0,11.67,4.64,12.7,10.73.67-.19,1.38-.3,2.12-.3,4.24,0,7.69,3.44,7.69,7.69,0,3.9-2.91,7.12-6.69,7.61v.07h-34.22c-5.3,0-9.61-4.3-9.61-9.61s4.3-9.61,9.61-9.61Z"/>
    <path class="cls-2" d="m443.79,349.11c-1.97,0-3.77.71-5.17,1.88-1.43-4.3-5.48-7.41-10.26-7.41-5.35,0-9.79,3.89-10.65,9-.56-.16-1.16-.25-1.77-.25-3.56,0-6.45,2.89-6.45,6.45,0,3.27,2.44,5.97,5.61,6.38v.06h28.7c4.45,0,8.06-3.61,8.06-8.06s-3.61-8.06-8.06-8.06Z"/>
    <path class="cls-2" d="m54.25,332.11c2.35,0,4.5.84,6.17,2.24,1.7-5.13,6.53-8.83,12.24-8.83,6.38,0,11.67,4.64,12.7,10.73.67-.19,1.38-.3,2.12-.3,4.24,0,7.69,3.44,7.69,7.69,0,3.9-2.91,7.12-6.69,7.61v.07h-34.22c-5.3,0-9.61-4.3-9.61-9.61s4.3-9.61,9.61-9.61Z"/>
    <path class="cls-3" d="m164.69,93.82s60.44-49.28,142.56-26.58c86.26,23.85,103.53,85.36,103.53,85.36"/>
    <path class="cls-4" d="m73.43,237.04c-23.43,3.63-35.21,53.36-8.85,73.1"/>
    <path class="cls-3" d="m368.46,380.53s40.14,17.55,57.73-6.93"/>
    <line class="cls-2" x1="177.51" y1="180.76" x2="177.51" y2="155.42"/>
    <line class="cls-2" x1="171.39" y1="180.76" x2="171.39" y2="168.13"/>
    <line class="cls-2" x1="270.67" y1="186.63" x2="270.67" y2="168.09"/>
    <line class="cls-2" x1="263.72" y1="185.05" x2="263.72" y2="177.36"/>
    <line class="cls-2" x1="257.55" y1="185.05" x2="257.55" y2="172.2"/>
    <line class="cls-2" x1="183.39" y1="180.76" x2="183.39" y2="168.09"/>
    <line class="cls-2" x1="351.4" y1="184.29" x2="351.4" y2="178.62"/>
    <line class="cls-2" x1="345.28" y1="184.29" x2="345.28" y2="170.48"/>
    <line class="cls-2" x1="357.28" y1="184.29" x2="357.28" y2="174.43"/>
  </g>
</svg>