<svg id="Group_17" data-name="Group 17" xmlns="http://www.w3.org/2000/svg" xmlns:xlink="http://www.w3.org/1999/xlink" width="197.025" height="161.303" viewBox="0 0 197.025 161.303">
  <defs>
    <clipPath id="clip-path">
      <rect id="Rectangle_83" data-name="Rectangle 83" width="197.025" height="161.303" fill="none"/>
    </clipPath>
    <clipPath id="clip-path-3">
      <rect id="Rectangle_1" data-name="Rectangle 1" width="197.025" height="161.246" fill="none"/>
    </clipPath>
  </defs>
  <g id="Group_16" data-name="Group 16" clip-path="url(#clip-path)">
    <g id="Group_5" data-name="Group 5">
      <g id="Group_4" data-name="Group 4" clip-path="url(#clip-path)">
        <g id="Group_3" data-name="Group 3" opacity="0.13">
          <g id="Group_2" data-name="Group 2">
            <g id="Group_1" data-name="Group 1" clip-path="url(#clip-path-3)">
              <path id="Path_1" data-name="Path 1" d="M184.748,98.972c-2.858-2.206-5.776-4.346-7.492-7.537-8.692-16.16,9.416-35.06-.639-52.57-5.1-8.889-15.17-15.378-24.979-11.687-10.466,3.94-20.348,8.052-31.6,4.793C100.334,26.265,90.115-.442,68.657.005,51.043.373,31.441,18.926,41.643,38.181,49.362,52.748,44.538,64.8,26.689,67.315S1.123,90.923,6.429,99.965s15.437,18.585,5.789,22.6S-.807,139.647.158,148.689s2.895,12.558,2.895,12.558H188.2s7.811-10.045,8.776-33.148c.418-10.015-1.654-19.82-9.225-26.669-.953-.862-1.973-1.664-3-2.457" transform="translate(0 0)" fill="#cc3a31"/>
            </g>
          </g>
        </g>
      </g>
    </g>
    <g id="Group_7" data-name="Group 7">
      <g id="Group_6" data-name="Group 6" clip-path="url(#clip-path)">
        <path id="Path_2" data-name="Path 2" d="M193.6,238.757v-5.592h-6.237V222.311H178.4V178.236h-8.575v26.642h-7.8V195.34H151.5v24.669h-4.288V227.9H137.08v-2.96H140.2V223.3H127.335v1.974h1.559v8.552h-6.627V217.707H98.881v11.512H82.119v-8.552H75.882v9.539H62.629V212.773H57.172v-5.92H47.427v26.971H37.683v5.921H31.446v18.091H205.684V238.757Z" transform="translate(-17.041 -96.589)" fill="none" stroke="#263238" stroke-width="0.25"/>
      </g>
    </g>
    <rect id="Rectangle_4" data-name="Rectangle 4" width="2.108" height="2.108" transform="translate(32.11 116.105)" fill="#263238"/>
    <rect id="Rectangle_5" data-name="Rectangle 5" width="2.108" height="2.108" transform="translate(36.501 116.105)" fill="#263238"/>
    <rect id="Rectangle_6" data-name="Rectangle 6" width="2.108" height="2.108" transform="translate(32.11 120.496)" fill="#263238"/>
    <rect id="Rectangle_7" data-name="Rectangle 7" width="2.108" height="2.108" transform="translate(36.501 120.496)" fill="#263238"/>
    <rect id="Rectangle_8" data-name="Rectangle 8" width="2.108" height="2.108" transform="translate(41.243 120.496)" fill="#263238"/>
    <rect id="Rectangle_9" data-name="Rectangle 9" width="2.108" height="2.108" transform="translate(41.243 124.887)" fill="#263238"/>
    <rect id="Rectangle_10" data-name="Rectangle 10" width="2.108" height="2.108" transform="translate(41.243 129.279)" fill="#263238"/>
    <rect id="Rectangle_11" data-name="Rectangle 11" width="2.108" height="2.108" transform="translate(41.243 133.67)" fill="#263238"/>
    <rect id="Rectangle_12" data-name="Rectangle 12" width="2.108" height="2.108" transform="translate(41.243 138.061)" fill="#263238"/>
    <rect id="Rectangle_13" data-name="Rectangle 13" width="2.108" height="2.108" transform="translate(41.243 142.452)" fill="#263238"/>
    <rect id="Rectangle_14" data-name="Rectangle 14" width="2.108" height="2.108" transform="translate(32.11 124.887)" fill="#263238"/>
    <rect id="Rectangle_15" data-name="Rectangle 15" width="2.108" height="2.108" transform="translate(36.501 124.887)" fill="#263238"/>
    <rect id="Rectangle_16" data-name="Rectangle 16" width="2.108" height="2.108" transform="translate(32.11 129.279)" fill="#263238"/>
    <rect id="Rectangle_17" data-name="Rectangle 17" width="2.108" height="2.108" transform="translate(36.501 129.279)" fill="#263238"/>
    <rect id="Rectangle_18" data-name="Rectangle 18" width="2.108" height="2.108" transform="translate(32.11 133.67)" fill="#263238"/>
    <rect id="Rectangle_19" data-name="Rectangle 19" width="2.108" height="2.108" transform="translate(36.501 133.67)" fill="#263238"/>
    <rect id="Rectangle_20" data-name="Rectangle 20" width="2.108" height="2.108" transform="translate(32.11 138.061)" fill="#263238"/>
    <rect id="Rectangle_21" data-name="Rectangle 21" width="2.108" height="2.108" transform="translate(22.449 140.52)" fill="#263238"/>
    <rect id="Rectangle_22" data-name="Rectangle 22" width="2.108" height="2.108" transform="translate(52.836 135.778)" fill="#263238"/>
    <rect id="Rectangle_23" data-name="Rectangle 23" width="2.108" height="2.108" transform="translate(57.051 135.778)" fill="#263238"/>
    <rect id="Rectangle_24" data-name="Rectangle 24" width="2.108" height="2.108" transform="translate(154.184 84.138)" fill="#263238"/>
    <rect id="Rectangle_25" data-name="Rectangle 25" width="2.108" height="2.108" transform="translate(156.819 84.138)" fill="#263238"/>
    <rect id="Rectangle_26" data-name="Rectangle 26" width="2.108" height="2.108" transform="translate(154.184 88.529)" fill="#263238"/>
    <rect id="Rectangle_27" data-name="Rectangle 27" width="2.108" height="2.108" transform="translate(156.819 88.529)" fill="#263238"/>
    <rect id="Rectangle_28" data-name="Rectangle 28" width="2.108" height="2.108" transform="translate(154.184 92.92)" fill="#263238"/>
    <rect id="Rectangle_29" data-name="Rectangle 29" width="2.108" height="2.108" transform="translate(156.819 92.92)" fill="#263238"/>
    <rect id="Rectangle_30" data-name="Rectangle 30" width="2.108" height="2.108" transform="translate(154.184 97.311)" fill="#263238"/>
    <rect id="Rectangle_31" data-name="Rectangle 31" width="2.108" height="2.108" transform="translate(156.819 97.311)" fill="#263238"/>
    <rect id="Rectangle_32" data-name="Rectangle 32" width="2.108" height="2.108" transform="translate(154.184 101.702)" fill="#263238"/>
    <rect id="Rectangle_33" data-name="Rectangle 33" width="2.108" height="2.108" transform="translate(156.819 101.702)" fill="#263238"/>
    <rect id="Rectangle_34" data-name="Rectangle 34" width="2.108" height="2.108" transform="translate(154.184 106.093)" fill="#263238"/>
    <rect id="Rectangle_35" data-name="Rectangle 35" width="2.108" height="2.108" transform="translate(156.819 106.093)" fill="#263238"/>
    <rect id="Rectangle_36" data-name="Rectangle 36" width="2.108" height="2.108" transform="translate(154.184 110.484)" fill="#263238"/>
    <rect id="Rectangle_37" data-name="Rectangle 37" width="2.108" height="2.108" transform="translate(156.819 110.484)" fill="#263238"/>
    <rect id="Rectangle_38" data-name="Rectangle 38" width="2.108" height="2.108" transform="translate(154.184 114.876)" fill="#263238"/>
    <rect id="Rectangle_39" data-name="Rectangle 39" width="2.108" height="2.108" transform="translate(156.819 114.876)" fill="#263238"/>
    <rect id="Rectangle_40" data-name="Rectangle 40" width="2.108" height="2.108" transform="translate(154.184 119.267)" fill="#263238"/>
    <rect id="Rectangle_41" data-name="Rectangle 41" width="2.108" height="2.108" transform="translate(156.819 119.267)" fill="#263238"/>
    <rect id="Rectangle_42" data-name="Rectangle 42" width="2.108" height="2.108" transform="translate(136.268 119.267)" fill="#263238"/>
    <rect id="Rectangle_43" data-name="Rectangle 43" width="2.108" height="2.108" transform="translate(140.835 119.267)" fill="#263238"/>
    <rect id="Rectangle_44" data-name="Rectangle 44" width="2.108" height="2.108" transform="translate(145.401 119.267)" fill="#263238"/>
    <rect id="Rectangle_45" data-name="Rectangle 45" width="2.108" height="2.108" transform="translate(136.268 128.752)" fill="#263238"/>
    <rect id="Rectangle_46" data-name="Rectangle 46" width="2.108" height="2.108" transform="translate(140.835 128.752)" fill="#263238"/>
    <rect id="Rectangle_47" data-name="Rectangle 47" width="2.108" height="2.108" transform="translate(145.401 128.752)" fill="#263238"/>
    <rect id="Rectangle_48" data-name="Rectangle 48" width="2.108" height="2.108" transform="translate(136.268 138.237)" fill="#263238"/>
    <rect id="Rectangle_49" data-name="Rectangle 49" width="2.108" height="2.108" transform="translate(140.835 138.237)" fill="#263238"/>
    <rect id="Rectangle_50" data-name="Rectangle 50" width="2.108" height="2.108" transform="translate(145.401 138.237)" fill="#263238"/>
    <rect id="Rectangle_51" data-name="Rectangle 51" width="2.108" height="2.108" transform="translate(154.184 123.658)" fill="#263238"/>
    <rect id="Rectangle_52" data-name="Rectangle 52" width="2.108" height="2.108" transform="translate(156.819 123.658)" fill="#263238"/>
    <rect id="Rectangle_53" data-name="Rectangle 53" width="2.108" height="2.108" transform="translate(154.184 128.049)" fill="#263238"/>
    <rect id="Rectangle_54" data-name="Rectangle 54" width="2.108" height="2.108" transform="translate(156.819 128.049)" fill="#263238"/>
    <rect id="Rectangle_55" data-name="Rectangle 55" width="2.108" height="2.108" transform="translate(154.184 132.44)" fill="#263238"/>
    <rect id="Rectangle_56" data-name="Rectangle 56" width="2.108" height="2.108" transform="translate(156.819 132.44)" fill="#263238"/>
    <rect id="Rectangle_57" data-name="Rectangle 57" width="2.108" height="2.108" transform="translate(161.21 128.049)" fill="#263238"/>
    <rect id="Rectangle_58" data-name="Rectangle 58" width="2.108" height="2.108" transform="translate(166.128 128.049)" fill="#263238"/>
    <rect id="Rectangle_59" data-name="Rectangle 59" width="2.108" height="2.108" transform="translate(161.21 132.264)" fill="#263238"/>
    <rect id="Rectangle_60" data-name="Rectangle 60" width="2.108" height="2.108" transform="translate(166.128 132.264)" fill="#263238"/>
    <rect id="Rectangle_61" data-name="Rectangle 61" width="2.108" height="2.108" transform="translate(161.21 136.48)" fill="#263238"/>
    <rect id="Rectangle_62" data-name="Rectangle 62" width="2.108" height="2.108" transform="translate(166.128 136.48)" fill="#263238"/>
    <rect id="Rectangle_63" data-name="Rectangle 63" width="2.108" height="2.108" transform="translate(161.21 140.696)" fill="#263238"/>
    <rect id="Rectangle_64" data-name="Rectangle 64" width="2.108" height="2.108" transform="translate(166.128 140.696)" fill="#263238"/>
    <rect id="Rectangle_65" data-name="Rectangle 65" width="2.108" height="2.108" transform="translate(154.184 136.832)" fill="#263238"/>
    <rect id="Rectangle_66" data-name="Rectangle 66" width="2.108" height="2.108" transform="translate(156.819 136.832)" fill="#263238"/>
    <rect id="Rectangle_67" data-name="Rectangle 67" width="2.108" height="2.108" transform="translate(154.184 141.223)" fill="#263238"/>
    <rect id="Rectangle_68" data-name="Rectangle 68" width="2.108" height="2.108" transform="translate(156.819 141.223)" fill="#263238"/>
    <rect id="Rectangle_69" data-name="Rectangle 69" width="2.108" height="2.108" transform="translate(36.501 138.061)" fill="#263238"/>
    <rect id="Rectangle_70" data-name="Rectangle 70" width="2.108" height="2.108" transform="translate(32.11 142.452)" fill="#263238"/>
    <rect id="Rectangle_71" data-name="Rectangle 71" width="2.108" height="2.108" transform="translate(36.501 142.452)" fill="#263238"/>
    <rect id="Rectangle_72" data-name="Rectangle 72" width="2.108" height="2.108" transform="translate(32.11 146.844)" fill="#263238"/>
    <rect id="Rectangle_73" data-name="Rectangle 73" width="2.108" height="2.108" transform="translate(36.501 146.844)" fill="#263238"/>
    <rect id="Rectangle_74" data-name="Rectangle 74" width="2.108" height="2.108" transform="translate(32.11 151.234)" fill="#263238"/>
    <rect id="Rectangle_75" data-name="Rectangle 75" width="2.108" height="2.108" transform="translate(36.501 151.234)" fill="#263238"/>
    <g id="Group_9" data-name="Group 9">
      <g id="Group_8" data-name="Group 8" clip-path="url(#clip-path)">
        <path id="Path_3" data-name="Path 3" d="M305.834,322.867v8.692H288.269V314.281h17.565v7.04" transform="translate(-156.217 -170.313)" fill="none" stroke="#263238" stroke-width="0.25"/>
        <path id="Path_4" data-name="Path 4" d="M376.386,338.57V341.2H358.822v-9.133h3.625" transform="translate(-194.451 -179.949)" fill="none" stroke="#263238" stroke-width="0.25"/>
      </g>
    </g>
    <path id="Path_5" data-name="Path 5" d="M371.41,332.061h11.8v5.081" transform="translate(-201.272 -179.949)" fill="none" stroke="#263238" stroke-width="0.25"/>
    <g id="Group_11" data-name="Group 11">
      <g id="Group_10" data-name="Group 10" clip-path="url(#clip-path)">
        <path id="Path_6" data-name="Path 6" d="M108.541,332.061h12.477V341.2H103.454v-9.134h3.422" transform="translate(-56.063 -179.949)" fill="none" stroke="#263238" stroke-width="0.25"/>
        <path id="Path_7" data-name="Path 7" d="M48.853,332.061h1.668V341.2h-6.5v-9.134h3.522" transform="translate(-23.856 -179.949)" fill="none" stroke="#263238" stroke-width="0.25"/>
        <rect id="Rectangle_77" data-name="Rectangle 77" width="2.81" height="17.279" transform="translate(139.429 143.967)" fill="none" stroke="#263238" stroke-width="0.25"/>
      </g>
    </g>
    <path id="Path_8" data-name="Path 8" d="M259.588,314.006h-2.76v-4.567h9.309v4.567h-4.051" transform="translate(-139.179 -167.689)" fill="none" stroke="#263238" stroke-width="0.25"/>
    <rect id="Rectangle_79" data-name="Rectangle 79" width="10.715" height="3.864" transform="translate(60.389 138.587)" fill="none" stroke="#263238" stroke-width="0.25"/>
    <g id="Group_13" data-name="Group 13">
      <g id="Group_12" data-name="Group 12" clip-path="url(#clip-path)">
        <rect id="Rectangle_80" data-name="Rectangle 80" width="1.054" height="22.658" transform="translate(65.482 138.588)" fill="none" stroke="#263238" stroke-width="0.25"/>
      </g>
    </g>
    <g id="Group_15" data-name="Group 15">
      <g id="Group_14" data-name="Group 14" clip-path="url(#clip-path)">
        <path id="Path_9" data-name="Path 9" d="M147.093,2.086A59.093,59.093,0,0,0,88,61.179c0,29.476,54.512,98.947,54.512,98.947h4.581s59.093-66.31,59.093-98.947A59.093,59.093,0,0,0,147.093,2.086m0,87.952a28.859,28.859,0,1,1,28.859-28.859,28.859,28.859,0,0,1-28.859,28.859" transform="translate(-47.688 -1.13)" fill="#263238"/>
        <path id="Path_10" data-name="Path 10" d="M147.093,2.086A59.093,59.093,0,0,0,88,61.179c0,29.476,54.512,98.947,54.512,98.947h4.581s59.093-66.31,59.093-98.947A59.093,59.093,0,0,0,147.093,2.086Zm0,87.952a28.859,28.859,0,1,1,28.859-28.859A28.859,28.859,0,0,1,147.093,90.038Z" transform="translate(-47.688 -1.13)" fill="none" stroke="#263238" strokeLinecap="round" stroke-linejoin="round" stroke-width="1"/>
        <path id="Path_11" data-name="Path 11" d="M137.093,2.086A59.093,59.093,0,0,0,78,61.179c0,32.636,59.093,98.947,59.093,98.947s59.093-66.31,59.093-98.947A59.093,59.093,0,0,0,137.093,2.086m0,87.952a28.859,28.859,0,1,1,28.859-28.859,28.859,28.859,0,0,1-28.859,28.859" transform="translate(-42.269 -1.13)" fill="#cc3a31"/>
        <path id="Path_12" data-name="Path 12" d="M137.093,2.086A59.093,59.093,0,0,0,78,61.179c0,32.636,59.093,98.947,59.093,98.947s59.093-66.31,59.093-98.947A59.093,59.093,0,0,0,137.093,2.086Zm0,87.952a28.859,28.859,0,1,1,28.859-28.859A28.859,28.859,0,0,1,137.093,90.038Z" transform="translate(-42.269 -1.13)" fill="none" stroke="#263238" strokeLinecap="round" stroke-linejoin="round" stroke-width="1"/>
      </g>
    </g>
  </g>
</svg>
